<?xml version="1.0" encoding="UTF-8" standalone="no"?>
<svg
   xmlns:dc="http://purl.org/dc/elements/1.1/"
   xmlns:cc="http://creativecommons.org/ns#"
   xmlns:rdf="http://www.w3.org/1999/02/22-rdf-syntax-ns#"
   xmlns:svg="http://www.w3.org/2000/svg"
   xmlns="http://www.w3.org/2000/svg"
   viewBox="0 0 808 510.66666"
   height="510.66666"
   width="808"
   xml:space="preserve"
   id="svg2"
   version="1.1"><metadata
     id="metadata8"><rdf:RDF><cc:Work
         rdf:about=""><dc:format>image/svg+xml</dc:format><dc:type
           rdf:resource="http://purl.org/dc/dcmitype/StillImage" /></cc:Work></rdf:RDF></metadata><defs
     id="defs6"><clipPath
       id="clipPath18"
       clipPathUnits="userSpaceOnUse"><path
         id="path16"
         d="M 0,383 H 606 V 0 H 0 Z" /></clipPath><clipPath
       id="clipPath54"
       clipPathUnits="userSpaceOnUse"><path
         id="path52"
         d="M 0,383 H 606 V 0 H 0 Z" /></clipPath><clipPath
       id="clipPath62"
       clipPathUnits="userSpaceOnUse"><path
         id="path60"
         d="m 418.373,353.435 h 78.386 V 251.984 h -78.386 z" /></clipPath><clipPath
       id="clipPath144"
       clipPathUnits="userSpaceOnUse"><path
         id="path142"
         d="M 21.474,330.985 H 573.606 V 16.9402 H 21.474 Z" /></clipPath><clipPath
       id="clipPath148"
       clipPathUnits="userSpaceOnUse"><path
         id="path146"
         d="m 573.606,214.288 v 0 c 0,21.868 -17.893,39.761 -39.762,39.761 h -7.448 c -20.592,1.187 -37.145,17.445 -38.797,37.911 -0.397,21.531 -18.12,39.025 -39.742,39.025 H 207.996 c -21.869,0 -39.761,-17.892 -39.761,-39.761 v 0 c 0,-16.929 10.726,-31.467 25.714,-37.175 h -48.666 c -20.082,0 -36.8,-15.093 -39.399,-34.494 -0.174,-0.051 -0.351,-0.096 -0.524,-0.148 -0.845,-22.928 -16.715,-41.465 -39.518,-42.779 -0.015,-0.054 -0.033,-0.108 -0.048,-0.162 h -4.559 c -21.869,0 -39.761,-17.893 -39.761,-39.761 v 0 c 0,-21.869 17.892,-39.761 39.761,-39.761 l 82.913,-0.481 c -21.869,0 -39.761,-17.893 -39.761,-39.762 v 0 c 0,-21.868 17.892,-39.761 39.761,-39.761 h 388.561 c 21.869,0 39.761,17.893 39.761,39.761 v 0 c 0,21.869 -17.892,39.762 -39.761,39.762 h -12.1 c -20.764,6.252 -35.148,14.054 -30.955,35.384 -0.126,0.073 -0.25,0.159 -0.374,0.251 0.177,1.513 0.277,3.048 0.277,4.607 v 0 c 0,17.611 -11.607,32.636 -27.547,37.821 h 71.834 c 21.869,0 39.762,17.893 39.762,39.762" /></clipPath><linearGradient
       id="linearGradient160"
       spreadMethod="pad"
       gradientTransform="matrix(-434.97824,413.97928,413.97928,434.97824,570.1676,-84.516998)"
       gradientUnits="userSpaceOnUse"
       y2="0"
       x2="1"
       y1="0"
       x1="0"><stop
         id="stop154"
         offset="0"
         style="stop-opacity:1;stop-color:#ffffff" /><stop
         id="stop156"
         offset="0.89796431"
         style="stop-opacity:0;stop-color:#ffffff" /><stop
         id="stop158"
         offset="1"
         style="stop-opacity:0;stop-color:#ffffff" /></linearGradient><mask
       id="mask162"
       height="1"
       width="1"
       y="0"
       x="0"
       maskUnits="userSpaceOnUse"><g
         id="g172"><g
           id="g170"><g
             id="g168"><g
               id="g166"><path
                 id="path164"
                 style="fill:url(#linearGradient160);stroke:none"
                 d="M -32768,32767 H 32767 V -32768 H -32768 Z" /></g></g></g></g></mask><linearGradient
       id="linearGradient180"
       spreadMethod="pad"
       gradientTransform="matrix(-434.97824,413.97928,413.97928,434.97824,570.1676,-84.516998)"
       gradientUnits="userSpaceOnUse"
       y2="0"
       x2="1"
       y1="0"
       x1="0"><stop
         id="stop174"
         offset="0"
         style="stop-opacity:1;stop-color:#728be8" /><stop
         id="stop176"
         offset="0.89796431"
         style="stop-opacity:1;stop-color:#728be8" /><stop
         id="stop178"
         offset="1"
         style="stop-opacity:1;stop-color:#728be8" /></linearGradient><clipPath
       id="clipPath270"
       clipPathUnits="userSpaceOnUse"><path
         id="path268"
         d="m 220.498,224.979 h 4.946 v -6.575 h -4.946 z" /></clipPath><clipPath
       id="clipPath430"
       clipPathUnits="userSpaceOnUse"><path
         id="path428"
         d="M 381.612,118.234 H 405.3 V 50.6278 h -23.688 z" /></clipPath><clipPath
       id="clipPath446"
       clipPathUnits="userSpaceOnUse"><path
         id="path444"
         d="m 338.882,134.127 h 16.367 v -9.276 h -16.367 z" /></clipPath><clipPath
       id="clipPath462"
       clipPathUnits="userSpaceOnUse"><path
         id="path460"
         d="m 356.301,147.74 h 30.033 v -29.213 h -30.033 z" /></clipPath><clipPath
       id="clipPath666"
       clipPathUnits="userSpaceOnUse"><path
         id="path664"
         d="m 230.859,217.77 h 4.466 v -5.937 h -4.466 z" /></clipPath><clipPath
       id="clipPath678"
       clipPathUnits="userSpaceOnUse"><path
         id="path676"
         d="m 376.337,121.384 h 21.389 V 60.3394 h -21.389 z" /></clipPath><clipPath
       id="clipPath690"
       clipPathUnits="userSpaceOnUse"><path
         id="path688"
         d="m 337.754,135.735 h 14.778 v -8.376 h -14.778 z" /></clipPath><clipPath
       id="clipPath702"
       clipPathUnits="userSpaceOnUse"><path
         id="path700"
         d="M 353.482,148.027 H 380.6 v -26.378 h -27.118 z" /></clipPath><clipPath
       id="clipPath776"
       clipPathUnits="userSpaceOnUse"><path
         id="path774"
         d="M 47.5936,113.724 H 96.4249 V 75.9948 H 47.5936 Z" /></clipPath></defs><g
     transform="matrix(1.3333333,0,0,-1.3333333,0,510.66667)"
     id="g10"><g
       id="g12"><g
         clip-path="url(#clipPath18)"
         id="g14"><g
           transform="translate(407.4695,147.1864)"
           id="g20"><path
             id="path22"
             style="fill:#f5f5f5;fill-opacity:1;fill-rule:nonzero;stroke:none"
             d="m 0,0 c 0,-13.077 -10.601,-23.678 -23.678,-23.678 -13.077,0 -23.678,10.601 -23.678,23.678 0,13.077 10.601,23.678 23.678,23.678 C -10.601,23.678 0,13.077 0,0" /></g><g
           transform="translate(515.4707,214.893)"
           id="g24"><path
             id="path26"
             style="fill:#f5f5f5;fill-opacity:1;fill-rule:nonzero;stroke:none"
             d="m 0,0 c 0,-11.524 -9.342,-20.866 -20.866,-20.866 -11.523,0 -20.865,9.342 -20.865,20.866 0,11.524 9.342,20.866 20.865,20.866 C -9.342,20.866 0,11.524 0,0" /></g><g
           transform="translate(224.317,243.1172)"
           id="g28"><path
             id="path30"
             style="fill:#f5f5f5;fill-opacity:1;fill-rule:nonzero;stroke:none"
             d="m 0,0 c 0,-6.187 -5.015,-11.202 -11.202,-11.202 -6.187,0 -11.202,5.015 -11.202,11.202 0,6.187 5.015,11.202 11.202,11.202 C -5.015,11.202 0,6.187 0,0" /></g><g
           transform="translate(407.6285,394.6802)"
           id="g32"><path
             id="path34"
             style="fill:#f5f5f5;fill-opacity:1;fill-rule:nonzero;stroke:none"
             d="m 0,0 c 0,-11.779 -9.549,-21.327 -21.327,-21.327 -11.779,0 -21.328,9.548 -21.328,21.327 0,11.779 9.549,21.327 21.328,21.327 C -9.549,21.327 0,11.779 0,0" /></g><g
           transform="translate(120.7666,196.8361)"
           id="g36"><path
             id="path38"
             style="fill:#f5f5f5;fill-opacity:1;fill-rule:nonzero;stroke:none"
             d="m 0,0 c 0,-11.504 -9.326,-20.83 -20.83,-20.83 -11.505,0 -20.83,9.326 -20.83,20.83 0,11.504 9.325,20.83 20.83,20.83 C -9.326,20.83 0,11.504 0,0" /></g><g
           transform="translate(443.6657,299.9465)"
           id="g40"><path
             id="path42"
             style="fill:#f5f5f5;fill-opacity:1;fill-rule:nonzero;stroke:none"
             d="m 0,0 c 0,-10.452 -8.473,-18.925 -18.925,-18.925 -10.452,0 -18.925,8.473 -18.925,18.925 0,10.452 8.473,18.925 18.925,18.925 C -8.473,18.925 0,10.452 0,0" /></g><g
           transform="translate(166.2284,362.4301)"
           id="g44"><path
             id="path46"
             style="fill:#f5f5f5;fill-opacity:1;fill-rule:nonzero;stroke:none"
             d="m 0,0 c 0,-19.117 -15.498,-34.615 -34.615,-34.615 -19.117,0 -34.615,15.498 -34.615,34.615 0,19.117 15.498,34.615 34.615,34.615 C -15.498,34.615 0,19.117 0,0" /></g></g></g><g
       id="g48"><g
         clip-path="url(#clipPath54)"
         id="g50"><g
           id="g56"><g
             id="g58" /><g
             id="g136"><g
               style="opacity:0.19999701"
               id="g134"
               clip-path="url(#clipPath62)"><path
                 id="path64"
                 style="fill:#ffffff;fill-opacity:1;fill-rule:nonzero;stroke:none"
                 d="m 423.15,348.658 h -4.777 v 4.777 h 4.777 z" /><path
                 id="path66"
                 style="fill:#ffffff;fill-opacity:1;fill-rule:nonzero;stroke:none"
                 d="m 441.552,348.658 h -4.777 v 4.777 h 4.777 z" /><path
                 id="path68"
                 style="fill:#ffffff;fill-opacity:1;fill-rule:nonzero;stroke:none"
                 d="m 459.954,348.658 h -4.777 v 4.777 h 4.777 z" /><path
                 id="path70"
                 style="fill:#ffffff;fill-opacity:1;fill-rule:nonzero;stroke:none"
                 d="m 478.357,348.658 h -4.777 v 4.777 h 4.777 z" /><path
                 id="path72"
                 style="fill:#ffffff;fill-opacity:1;fill-rule:nonzero;stroke:none"
                 d="m 496.759,348.658 h -4.777 v 4.777 h 4.777 z" /><path
                 id="path74"
                 style="fill:#ffffff;fill-opacity:1;fill-rule:nonzero;stroke:none"
                 d="m 423.15,332.546 h -4.777 v 4.777 h 4.777 z" /><path
                 id="path76"
                 style="fill:#ffffff;fill-opacity:1;fill-rule:nonzero;stroke:none"
                 d="m 441.552,332.546 h -4.777 v 4.777 h 4.777 z" /><path
                 id="path78"
                 style="fill:#ffffff;fill-opacity:1;fill-rule:nonzero;stroke:none"
                 d="m 459.954,332.546 h -4.777 v 4.777 h 4.777 z" /><path
                 id="path80"
                 style="fill:#ffffff;fill-opacity:1;fill-rule:nonzero;stroke:none"
                 d="m 478.357,332.546 h -4.777 v 4.777 h 4.777 z" /><path
                 id="path82"
                 style="fill:#ffffff;fill-opacity:1;fill-rule:nonzero;stroke:none"
                 d="m 496.759,332.546 h -4.777 v 4.777 h 4.777 z" /><path
                 id="path84"
                 style="fill:#ffffff;fill-opacity:1;fill-rule:nonzero;stroke:none"
                 d="m 423.15,316.433 h -4.777 v 4.777 h 4.777 z" /><path
                 id="path86"
                 style="fill:#ffffff;fill-opacity:1;fill-rule:nonzero;stroke:none"
                 d="m 441.552,316.433 h -4.777 v 4.777 h 4.777 z" /><path
                 id="path88"
                 style="fill:#ffffff;fill-opacity:1;fill-rule:nonzero;stroke:none"
                 d="m 459.954,316.433 h -4.777 v 4.777 h 4.777 z" /><path
                 id="path90"
                 style="fill:#ffffff;fill-opacity:1;fill-rule:nonzero;stroke:none"
                 d="m 478.357,316.433 h -4.777 v 4.777 h 4.777 z" /><path
                 id="path92"
                 style="fill:#ffffff;fill-opacity:1;fill-rule:nonzero;stroke:none"
                 d="m 496.759,316.433 h -4.777 v 4.777 h 4.777 z" /><path
                 id="path94"
                 style="fill:#ffffff;fill-opacity:1;fill-rule:nonzero;stroke:none"
                 d="m 423.15,300.321 h -4.777 v 4.777 h 4.777 z" /><path
                 id="path96"
                 style="fill:#ffffff;fill-opacity:1;fill-rule:nonzero;stroke:none"
                 d="m 441.552,300.321 h -4.777 v 4.777 h 4.777 z" /><path
                 id="path98"
                 style="fill:#ffffff;fill-opacity:1;fill-rule:nonzero;stroke:none"
                 d="m 459.954,300.321 h -4.777 v 4.777 h 4.777 z" /><path
                 id="path100"
                 style="fill:#ffffff;fill-opacity:1;fill-rule:nonzero;stroke:none"
                 d="m 478.357,300.321 h -4.777 v 4.777 h 4.777 z" /><path
                 id="path102"
                 style="fill:#ffffff;fill-opacity:1;fill-rule:nonzero;stroke:none"
                 d="m 496.759,300.321 h -4.777 v 4.777 h 4.777 z" /><path
                 id="path104"
                 style="fill:#ffffff;fill-opacity:1;fill-rule:nonzero;stroke:none"
                 d="m 423.15,284.209 h -4.777 v 4.777 h 4.777 z" /><path
                 id="path106"
                 style="fill:#ffffff;fill-opacity:1;fill-rule:nonzero;stroke:none"
                 d="m 441.552,284.209 h -4.777 v 4.777 h 4.777 z" /><path
                 id="path108"
                 style="fill:#ffffff;fill-opacity:1;fill-rule:nonzero;stroke:none"
                 d="m 459.954,284.209 h -4.777 v 4.777 h 4.777 z" /><path
                 id="path110"
                 style="fill:#ffffff;fill-opacity:1;fill-rule:nonzero;stroke:none"
                 d="m 478.357,284.209 h -4.777 v 4.777 h 4.777 z" /><path
                 id="path112"
                 style="fill:#ffffff;fill-opacity:1;fill-rule:nonzero;stroke:none"
                 d="m 496.759,284.209 h -4.777 v 4.777 h 4.777 z" /><path
                 id="path114"
                 style="fill:#ffffff;fill-opacity:1;fill-rule:nonzero;stroke:none"
                 d="m 423.15,268.096 h -4.777 v 4.777 h 4.777 z" /><path
                 id="path116"
                 style="fill:#ffffff;fill-opacity:1;fill-rule:nonzero;stroke:none"
                 d="m 441.552,268.096 h -4.777 v 4.777 h 4.777 z" /><path
                 id="path118"
                 style="fill:#ffffff;fill-opacity:1;fill-rule:nonzero;stroke:none"
                 d="m 459.954,268.096 h -4.777 v 4.777 h 4.777 z" /><path
                 id="path120"
                 style="fill:#ffffff;fill-opacity:1;fill-rule:nonzero;stroke:none"
                 d="m 478.357,268.096 h -4.777 v 4.777 h 4.777 z" /><path
                 id="path122"
                 style="fill:#ffffff;fill-opacity:1;fill-rule:nonzero;stroke:none"
                 d="m 496.759,268.096 h -4.777 v 4.777 h 4.777 z" /><path
                 id="path124"
                 style="fill:#ffffff;fill-opacity:1;fill-rule:nonzero;stroke:none"
                 d="m 423.15,251.984 h -4.777 v 4.777 h 4.777 z" /><path
                 id="path126"
                 style="fill:#ffffff;fill-opacity:1;fill-rule:nonzero;stroke:none"
                 d="m 441.552,251.984 h -4.777 v 4.777 h 4.777 z" /><path
                 id="path128"
                 style="fill:#ffffff;fill-opacity:1;fill-rule:nonzero;stroke:none"
                 d="m 459.954,251.984 h -4.777 v 4.777 h 4.777 z" /><path
                 id="path130"
                 style="fill:#ffffff;fill-opacity:1;fill-rule:nonzero;stroke:none"
                 d="m 478.357,251.984 h -4.777 v 4.777 h 4.777 z" /><path
                 id="path132"
                 style="fill:#ffffff;fill-opacity:1;fill-rule:nonzero;stroke:none"
                 d="m 496.759,251.984 h -4.777 v 4.777 h 4.777 z" /></g></g></g><g
           id="g138"><g
             id="g140" /><g
             id="g198"><g
               style="opacity:0.55999798"
               id="g196"
               clip-path="url(#clipPath144)"><g
                 id="g194"><g
                   id="g192"
                   clip-path="url(#clipPath148)"><g
                     id="g190"><g
                       id="g182" /><g
                       id="g188"
                       mask="url(#mask162)"><g
                         id="g186"><path
                           id="path184"
                           style="fill:url(#linearGradient180);stroke:none"
                           d="m 573.606,214.288 v 0 c 0,21.868 -17.893,39.761 -39.762,39.761 h -7.448 c -20.592,1.187 -37.145,17.445 -38.797,37.911 -0.397,21.531 -18.12,39.025 -39.742,39.025 H 207.996 c -21.869,0 -39.761,-17.892 -39.761,-39.761 v 0 c 0,-16.929 10.726,-31.467 25.714,-37.175 h -48.666 c -20.082,0 -36.8,-15.093 -39.399,-34.494 -0.174,-0.051 -0.351,-0.096 -0.524,-0.148 -0.845,-22.928 -16.715,-41.465 -39.518,-42.779 -0.015,-0.054 -0.033,-0.108 -0.048,-0.162 h -4.559 c -21.869,0 -39.761,-17.893 -39.761,-39.761 v 0 c 0,-21.869 17.892,-39.761 39.761,-39.761 l 82.913,-0.481 c -21.869,0 -39.761,-17.893 -39.761,-39.762 v 0 c 0,-21.868 17.892,-39.761 39.761,-39.761 h 388.561 c 21.869,0 39.761,17.893 39.761,39.761 v 0 c 0,21.869 -17.892,39.762 -39.761,39.762 h -12.1 c -20.764,6.252 -35.148,14.054 -30.955,35.384 -0.126,0.073 -0.25,0.159 -0.374,0.251 0.177,1.513 0.277,3.048 0.277,4.607 v 0 c 0,17.611 -11.607,32.636 -27.547,37.821 h 71.834 c 21.869,0 39.762,17.893 39.762,39.762" /></g></g></g></g></g></g></g></g><g
           transform="translate(370.3972,108.2094)"
           id="g200"><path
             id="path202"
             style="fill:#feca7a;fill-opacity:1;fill-rule:nonzero;stroke:none"
             d="m 0,0 c 0.918,5.636 5.748,9.801 11.458,9.877 24.785,0.33 87.895,0.9 91.28,-1.788 4.217,-3.35 6.422,-5.065 6.092,-10.379 -0.304,-4.884 -5.627,-89.191 -5.627,-89.191 H -14.902 Z" /></g><g
           transform="translate(460.1492,16.6849)"
           id="g204"><path
             id="path206"
             style="fill:#1a2e35;fill-opacity:1;fill-rule:nonzero;stroke:none"
             d="m 0,0 c -0.006,0 -0.018,0.084 -0.034,0.248 -0.016,0.184 -0.037,0.425 -0.063,0.73 -0.048,0.666 -0.117,1.609 -0.205,2.812 -0.092,1.221 -0.188,2.716 -0.242,4.455 -0.061,1.738 -0.172,3.716 -0.174,5.906 -0.012,1.095 -0.025,2.242 -0.039,3.436 -0.009,1.195 0.03,2.438 0.044,3.726 0.011,2.575 0.152,5.323 0.274,8.216 0.326,5.78 0.876,12.127 1.761,18.751 0.917,6.623 2.083,12.888 3.313,18.547 0.655,2.821 1.253,5.508 1.931,7.993 0.331,1.245 0.625,2.453 0.954,3.603 0.332,1.147 0.65,2.249 0.955,3.302 0.586,2.11 1.222,3.988 1.745,5.646 0.517,1.662 1.008,3.077 1.424,4.229 0.406,1.136 0.724,2.027 0.948,2.656 0.107,0.287 0.192,0.514 0.256,0.687 0.059,0.154 0.093,0.232 0.099,0.23 0.006,-0.002 -0.015,-0.084 -0.063,-0.243 -0.056,-0.176 -0.128,-0.407 -0.221,-0.699 -0.208,-0.634 -0.504,-1.532 -0.881,-2.677 -0.394,-1.159 -0.865,-2.58 -1.363,-4.246 C 9.915,85.645 9.298,83.764 8.729,81.652 8.432,80.598 8.121,79.496 7.798,78.347 7.477,77.197 7.19,75.988 6.866,74.744 6.202,72.258 5.616,69.573 4.971,66.754 3.761,61.099 2.608,54.843 1.692,48.23 0.809,41.616 0.249,35.281 -0.096,29.51 -0.227,26.622 -0.379,23.878 -0.403,21.307 -0.424,20.021 -0.47,18.78 -0.468,17.586 -0.463,16.393 -0.458,15.248 -0.454,14.154 -0.469,11.966 -0.377,9.99 -0.335,8.252 -0.301,6.515 -0.227,5.02 -0.156,3.798 -0.099,2.594 -0.054,1.65 -0.022,0.984 -0.011,0.677 -0.002,0.435 0.004,0.251 0.008,0.085 0.006,0.001 0,0" /></g><g
           transform="translate(393.7292,75.6516)"
           id="g208"><path
             id="path210"
             style="fill:#1a2e35;fill-opacity:1;fill-rule:nonzero;stroke:none"
             d="M 0,0 C -0.003,0.013 0.058,0.036 0.18,0.07 0.302,0.098 0.49,0.122 0.731,0.101 1.208,0.066 1.922,-0.214 2.459,-0.921 3.017,-1.614 3.153,-2.817 2.633,-3.862 2.381,-4.383 1.995,-4.875 1.478,-5.246 0.961,-5.619 0.319,-5.842 -0.352,-5.884 c -0.668,-0.04 -1.351,0.11 -1.884,0.49 -0.544,0.366 -0.872,0.962 -0.977,1.537 -0.202,1.173 0.274,2.227 0.904,2.827 1.327,1.132 2.502,1.172 2.477,1.061 C 0.162,0.017 0.102,0.024 -0.014,-0.002 -0.13,-0.029 -0.3,-0.084 -0.512,-0.172 -0.929,-0.354 -1.549,-0.653 -2.123,-1.218 -2.669,-1.774 -3.075,-2.767 -2.876,-3.79 c 0.103,-0.501 0.385,-0.997 0.85,-1.304 0.453,-0.319 1.053,-0.453 1.652,-0.417 0.6,0.037 1.181,0.236 1.64,0.563 0.464,0.327 0.822,0.77 1.058,1.237 0.483,0.943 0.392,1.996 -0.08,2.637 C 1.785,-0.417 1.149,-0.117 0.71,-0.043 0.264,0.04 0.006,-0.037 0,0" /></g><g
           transform="translate(412.2552,86.3612)"
           id="g212"><path
             id="path214"
             style="fill:#1a2e35;fill-opacity:1;fill-rule:nonzero;stroke:none"
             d="m 0,0 c -0.007,-0.075 -1.222,0.148 -3.172,-0.034 -1.934,-0.169 -4.63,-0.865 -7.075,-2.576 -2.444,-1.714 -4.02,-4.01 -4.839,-5.77 -0.837,-1.77 -1.043,-2.989 -1.116,-2.969 -0.022,0.004 0.011,0.309 0.132,0.851 0.119,0.541 0.349,1.314 0.743,2.228 0.772,1.819 2.353,4.205 4.866,5.966 2.513,1.759 5.295,2.43 7.268,2.533 C -2.2,0.288 -1.394,0.24 -0.845,0.167 -0.295,0.095 0.003,0.022 0,0" /></g><g
           transform="translate(377.9986,64.4252)"
           id="g216"><path
             id="path218"
             style="fill:#1a2e35;fill-opacity:1;fill-rule:nonzero;stroke:none"
             d="M 0,0 C -0.02,0.011 0.068,0.232 0.275,0.609 0.481,0.987 0.822,1.512 1.316,2.105 2.29,3.289 3.989,4.718 6.244,5.487 8.501,6.255 10.719,6.162 12.213,5.818 12.967,5.65 13.557,5.443 13.951,5.27 14.345,5.097 14.55,4.976 14.541,4.955 14.515,4.89 13.651,5.295 12.162,5.559 10.688,5.829 8.543,5.875 6.365,5.133 4.188,4.39 2.518,3.045 1.515,1.931 0.497,0.813 0.06,-0.036 0,0" /></g><g
           transform="translate(400.8539,61.4908)"
           id="g220"><path
             id="path222"
             style="fill:#1a2e35;fill-opacity:1;fill-rule:nonzero;stroke:none"
             d="M 0,0 C -0.027,-0.036 -0.518,0.264 -1.215,0.878 -1.911,1.489 -2.791,2.44 -3.56,3.635 -4.327,4.832 -4.825,6.028 -5.092,6.915 -5.36,7.804 -5.428,8.376 -5.384,8.385 -5.268,8.421 -4.765,6.174 -3.246,3.837 -1.753,1.484 0.081,0.091 0,0" /></g><g
           transform="translate(433.6144,74.6536)"
           id="g224"><path
             id="path226"
             style="fill:#1a2e35;fill-opacity:1;fill-rule:nonzero;stroke:none"
             d="M 0,0 C -0.003,0.012 0.058,0.036 0.18,0.07 0.302,0.098 0.49,0.122 0.731,0.1 1.208,0.066 1.922,-0.214 2.459,-0.921 3.017,-1.614 3.153,-2.817 2.633,-3.862 2.381,-4.383 1.995,-4.875 1.478,-5.246 0.961,-5.619 0.319,-5.842 -0.352,-5.884 c -0.668,-0.04 -1.351,0.11 -1.884,0.49 -0.544,0.366 -0.872,0.962 -0.977,1.537 -0.202,1.173 0.274,2.227 0.904,2.827 1.327,1.132 2.502,1.172 2.477,1.061 C 0.162,0.017 0.102,0.024 -0.014,-0.002 -0.13,-0.029 -0.3,-0.084 -0.512,-0.173 c -0.417,-0.181 -1.037,-0.48 -1.611,-1.045 -0.546,-0.557 -0.952,-1.549 -0.753,-2.572 0.103,-0.502 0.385,-0.997 0.85,-1.304 0.453,-0.319 1.053,-0.453 1.652,-0.417 0.6,0.037 1.181,0.236 1.64,0.563 0.464,0.327 0.822,0.77 1.058,1.237 0.482,0.943 0.392,1.996 -0.08,2.637 C 1.785,-0.417 1.149,-0.117 0.71,-0.044 0.264,0.04 0.006,-0.037 0,0" /></g><g
           transform="translate(452.1404,85.3631)"
           id="g228"><path
             id="path230"
             style="fill:#1a2e35;fill-opacity:1;fill-rule:nonzero;stroke:none"
             d="m 0,0 c -0.007,-0.075 -1.222,0.148 -3.172,-0.034 -1.934,-0.169 -4.63,-0.865 -7.075,-2.576 -2.445,-1.714 -4.02,-4.01 -4.839,-5.77 -0.837,-1.77 -1.043,-2.989 -1.116,-2.969 -0.022,0.004 0.011,0.309 0.132,0.851 0.119,0.541 0.349,1.314 0.743,2.228 0.772,1.819 2.353,4.205 4.866,5.966 2.513,1.759 5.295,2.43 7.268,2.533 C -2.2,0.288 -1.394,0.24 -0.845,0.167 -0.295,0.095 0.003,0.022 0,0" /></g><g
           transform="translate(417.8838,63.4271)"
           id="g232"><path
             id="path234"
             style="fill:#1a2e35;fill-opacity:1;fill-rule:nonzero;stroke:none"
             d="M 0,0 C -0.02,0.011 0.068,0.232 0.275,0.609 0.481,0.987 0.822,1.512 1.316,2.105 2.29,3.289 3.989,4.718 6.244,5.487 8.5,6.255 10.719,6.162 12.213,5.818 12.967,5.65 13.557,5.443 13.951,5.27 14.345,5.097 14.55,4.976 14.54,4.955 14.515,4.89 13.651,5.295 12.162,5.559 10.688,5.829 8.543,5.875 6.365,5.133 4.188,4.39 2.518,3.045 1.514,1.931 0.497,0.813 0.06,-0.036 0,0" /></g><g
           transform="translate(440.7391,60.4927)"
           id="g236"><path
             id="path238"
             style="fill:#1a2e35;fill-opacity:1;fill-rule:nonzero;stroke:none"
             d="M 0,0 C -0.027,-0.036 -0.518,0.264 -1.215,0.878 -1.911,1.489 -2.791,2.44 -3.56,3.635 -4.327,4.832 -4.825,6.028 -5.092,6.915 -5.36,7.804 -5.428,8.376 -5.384,8.385 -5.268,8.421 -4.765,6.174 -3.246,3.837 -1.753,1.484 0.081,0.091 0,0" /></g><g
           transform="translate(130.281,36.2253)"
           id="g240"><path
             id="path242"
             style="fill:#1a2e35;fill-opacity:1;fill-rule:nonzero;stroke:none"
             d="m 0,0 c -0.339,0 -0.649,0.227 -0.738,0.57 l -25.514,97.239 c -0.107,0.408 0.137,0.826 0.545,0.933 0.406,0.108 0.827,-0.137 0.933,-0.545 L 0.74,0.959 C 0.847,0.549 0.603,0.133 0.195,0.025 0.13,0.007 0.064,0 0,0" /></g><g
           transform="translate(123.5417,33.8184)"
           id="g244"><path
             id="path246"
             style="fill:#1a2e35;fill-opacity:1;fill-rule:nonzero;stroke:none"
             d="m 0,0 c -0.339,0 -0.649,0.227 -0.738,0.57 l -25.514,97.24 c -0.107,0.408 0.137,0.826 0.545,0.933 0.409,0.109 0.827,-0.137 0.933,-0.545 L 0.74,0.959 C 0.847,0.549 0.603,0.133 0.195,0.025 0.13,0.007 0.064,0 0,0" /></g><g
           transform="translate(100.3522,135.8495)"
           id="g248"><path
             id="path250"
             style="fill:#1a2e35;fill-opacity:1;fill-rule:nonzero;stroke:none"
             d="m 0,0 -1.227,0.912 65.512,88.164 59.757,-11.45 -0.287,-1.501 -58.816,11.268 z" /></g><g
           transform="translate(105.9959,134.2104)"
           id="g252"><path
             id="path254"
             style="fill:#1a2e35;fill-opacity:1;fill-rule:nonzero;stroke:none"
             d="m 0,0 -1.229,0.91 64.469,87.012 1.229,-0.91 z" /></g><g
           transform="translate(163.0047,220.8752)"
           id="g256"><path
             id="path258"
             style="fill:#fe7657;fill-opacity:1;fill-rule:nonzero;stroke:none"
             d="M 0,0 C 0.771,-2.265 3.231,-3.477 5.497,-2.707 7.762,-1.936 8.974,0.525 8.203,2.79 7.433,5.055 4.972,6.267 2.707,5.497 0.441,4.726 -0.77,2.265 0,0" /></g><g
           transform="translate(221.5692,218.4043)"
           id="g260"><path
             id="path262"
             style="fill:#57bae8;fill-opacity:1;fill-rule:nonzero;stroke:none"
             d="M 0,0 -1.071,6.227 3.541,6.574 3.875,0.559 Z" /></g><g
           id="g264"><g
             id="g266" /><g
             id="g278"><g
               style="opacity:0.30000299"
               id="g276"
               clip-path="url(#clipPath270)"><g
                 id="g274"
                 transform="translate(221.5692,218.4043)"><path
                   id="path272"
                   style="fill:#fe7657;fill-opacity:1;fill-rule:nonzero;stroke:none"
                   d="M 0,0 -1.071,6.227 3.541,6.574 3.875,0.559 Z" /></g></g></g></g><g
           transform="translate(217.7962,218.8339)"
           id="g280"><path
             id="path282"
             style="fill:#fd7256;fill-opacity:1;fill-rule:nonzero;stroke:none"
             d="m 0,0 -4.26,-23.108 -10.767,-30.534 60.668,8.75 -24.485,26.653 -10.223,19.816 z" /></g><g
           transform="translate(96.1034,133.2661)"
           id="g284"><path
             id="path286"
             style="fill:#fe7657;fill-opacity:1;fill-rule:nonzero;stroke:none"
             d="m 0,0 c 0,-2.659 2.155,-4.814 4.814,-4.814 2.658,0 4.814,2.155 4.814,4.814 0,2.659 -2.156,4.814 -4.814,4.814 C 2.155,4.814 0,2.659 0,0" /></g><g
           transform="translate(111.0748,16.7719)"
           id="g288"><path
             id="path290"
             style="fill:#fe7657;fill-opacity:1;fill-rule:nonzero;stroke:none"
             d="m 0,0 c -0.016,0.321 -0.049,0.638 -0.049,0.963 0,10.634 8.621,19.255 19.256,19.255 10.634,0 19.255,-8.621 19.255,-19.255 0,-0.325 -0.033,-0.642 -0.049,-0.963 z" /></g><g
           transform="translate(216.1016,23.9788)"
           id="g292"><path
             id="path294"
             style="fill:#ffbf9d;fill-opacity:1;fill-rule:nonzero;stroke:none"
             d="m 0,0 c -0.237,-0.047 -1.244,-1.073 0.198,-2.704 1.441,-1.631 10.134,-6.085 11.74,-3.422 1.605,2.663 -2.267,4.514 -2.267,4.514 z" /></g><g
           transform="translate(225.6516,26.8511)"
           id="g296"><path
             id="path298"
             style="fill:#ffbf9d;fill-opacity:1;fill-rule:nonzero;stroke:none"
             d="m 0,0 c 0,0 8.971,0.992 12.63,0.522 3.974,-0.51 8.182,1.498 10.68,4.236 2.499,2.739 3.153,6.342 3.153,6.342 l 5.708,3.993 c 0,0 0.616,13.57 -8.43,11.378 L 13.168,26.1 c 0,0 -20.798,-3.446 -24.02,-6.036 0,0 -3.918,-3.807 -5.059,-5.282 -0.43,-0.556 -0.8,-6.148 3.174,-8.055 0,0 -2.343,-2.997 -0.279,-4.686 l 0.972,-0.736 c 0,0 -1.343,-2.988 -0.08,-3.844 1.262,-0.857 11.242,-3.886 14.078,-1.912 C 4.79,-2.478 1.505,-0.2 0,0" /></g><g
           transform="translate(214.4718,34.1042)"
           id="g300"><path
             id="path302"
             style="fill:#ff9a6c;fill-opacity:1;fill-rule:nonzero;stroke:none"
             d="m 0,0 c 0.005,0.027 0.422,-0.029 1.175,-0.127 0.753,-0.097 1.843,-0.229 3.194,-0.327 0.676,-0.05 1.417,-0.087 2.212,-0.105 0.795,-0.025 1.648,0.011 2.56,-0.061 0.901,-0.077 1.897,-0.254 2.745,-0.87 0.805,-0.597 1.499,-1.611 1.341,-2.767 C 13.151,-4.824 12.825,-5.32 12.425,-5.677 12.016,-6.03 11.542,-6.264 11.068,-6.431 10.11,-6.759 9.159,-6.857 8.258,-6.95 6.45,-7.103 4.818,-7 3.464,-6.857 c -1.356,0.141 -2.443,0.323 -3.193,0.45 -0.749,0.13 -1.161,0.218 -1.157,0.242 0.004,0.027 0.423,-0.013 1.178,-0.098 0.755,-0.083 1.846,-0.224 3.196,-0.331 1.349,-0.109 2.965,-0.182 4.739,-0.013 0.88,0.099 1.824,0.208 2.718,0.521 0.445,0.158 0.877,0.378 1.234,0.688 0.347,0.312 0.617,0.728 0.678,1.197 0.14,0.95 -0.459,1.875 -1.189,2.416 -0.745,0.553 -1.688,0.741 -2.557,0.822 -0.88,0.079 -1.737,0.056 -2.539,0.094 C 5.77,-0.837 5.025,-0.784 4.347,-0.718 2.99,-0.585 1.9,-0.412 1.152,-0.27 0.404,-0.129 -0.004,-0.024 0,0" /></g><g
           transform="translate(213.744,40.5874)"
           id="g304"><path
             id="path306"
             style="fill:#ff9a6c;fill-opacity:1;fill-rule:nonzero;stroke:none"
             d="m 0,0 c 0.005,0.027 0.42,-0.03 1.17,-0.132 0.749,-0.099 1.834,-0.242 3.179,-0.358 1.344,-0.118 2.95,-0.208 4.734,-0.208 0.882,-0.013 1.883,0.047 2.832,-0.425 0.465,-0.233 0.875,-0.644 1.079,-1.154 0.209,-0.505 0.245,-1.069 0.147,-1.607 C 12.942,-4.983 12.173,-5.84 11.328,-6.37 10.473,-6.914 9.509,-7.167 8.605,-7.257 6.779,-7.415 5.178,-7.131 3.832,-7.036 c -1.298,0.132 -2.372,0.241 -3.19,0.324 -0.753,0.085 -1.168,0.144 -1.165,0.17 0.002,0.026 0.421,0.016 1.177,-0.025 0.82,-0.052 1.898,-0.122 3.199,-0.205 1.349,-0.064 2.965,-0.316 4.715,-0.142 0.87,0.095 1.77,0.343 2.564,0.853 0.783,0.495 1.47,1.283 1.642,2.245 0.195,0.954 -0.19,1.977 -1.028,2.369 -0.816,0.418 -1.782,0.388 -2.665,0.405 -1.796,0.019 -3.41,0.137 -4.759,0.289 C 2.974,-0.603 1.89,-0.419 1.146,-0.276 0.402,-0.129 -0.004,-0.024 0,0" /></g><g
           transform="translate(218.3725,39.7964)"
           id="g308"><path
             id="path310"
             style="fill:#ff9a6c;fill-opacity:1;fill-rule:nonzero;stroke:none"
             d="M 0,0 C -0.105,-0.024 -0.356,0.763 -0.815,1.655 -1.268,2.551 -1.757,3.216 -1.676,3.287 -1.606,3.355 -0.961,2.77 -0.482,1.825 0.002,0.882 0.097,0.017 0,0" /></g><g
           transform="translate(245.8096,52.778)"
           id="g312"><path
             id="path314"
             style="fill:#ffbf9d;fill-opacity:1;fill-rule:nonzero;stroke:none"
             d="m 0,0 -8.48,1.128 c 0,0 -23.971,4.887 -24.204,4.255 -0.234,-0.632 -1.416,-0.853 -0.53,-3.42 0.886,-2.567 14.719,-4.85 15.335,-5.666 0.616,-0.815 1.058,-5.577 6.489,-7.761 5.43,-2.184 8.795,-1.452 8.795,-1.452" /></g><g
           transform="translate(243.2149,39.8621)"
           id="g316"><path
             id="path318"
             style="fill:#ff9a6c;fill-opacity:1;fill-rule:nonzero;stroke:none"
             d="m 0,0 c 0.001,-0.006 -0.06,-0.026 -0.183,-0.05 -0.123,-0.024 -0.307,-0.054 -0.55,-0.076 -0.485,-0.047 -1.207,-0.073 -2.132,0 -0.924,0.07 -2.05,0.246 -3.322,0.587 -1.265,0.357 -2.71,0.796 -4.169,1.621 -1.459,0.812 -2.816,2.162 -3.736,3.903 -0.471,0.861 -0.799,1.842 -1.154,2.788 -0.045,0.121 -0.099,0.225 -0.156,0.315 -0.042,0.062 -0.136,0.104 -0.253,0.159 -0.227,0.099 -0.478,0.178 -0.728,0.257 -0.504,0.154 -1.023,0.292 -1.549,0.43 -2.109,0.548 -4.341,1.077 -6.625,1.749 -1.142,0.336 -2.298,0.705 -3.445,1.169 -0.572,0.238 -1.143,0.497 -1.687,0.835 -0.273,0.165 -0.534,0.366 -0.771,0.607 -0.111,0.132 -0.223,0.265 -0.296,0.441 -0.08,0.165 -0.105,0.31 -0.16,0.466 -0.174,0.613 -0.313,1.284 -0.118,1.955 0.095,0.334 0.318,0.622 0.52,0.851 0.102,0.117 0.192,0.224 0.236,0.329 0.018,0.027 -0.016,-0.012 0.057,0.092 0.085,0.085 0.108,0.069 0.14,0.084 0.076,0.024 0.102,0.017 0.155,0.025 0.087,0.004 0.17,0.005 0.249,0.001 1.254,-0.079 2.435,-0.292 3.613,-0.476 2.346,-0.387 4.599,-0.806 6.744,-1.211 4.289,-0.814 8.142,-1.591 11.375,-2.256 0.807,-0.16 1.579,-0.343 2.303,-0.463 0.735,-0.103 1.429,-0.2 2.079,-0.291 1.289,-0.184 2.404,-0.343 3.327,-0.475 0.89,-0.133 1.592,-0.239 2.101,-0.315 C 2.087,13.014 2.266,12.984 2.411,12.96 2.533,12.937 2.596,12.922 2.595,12.916 2.594,12.91 2.53,12.912 2.406,12.922 2.26,12.936 2.079,12.954 1.855,12.976 c -0.512,0.06 -1.217,0.142 -2.112,0.246 -0.926,0.114 -2.045,0.252 -3.339,0.412 -0.652,0.082 -1.348,0.17 -2.085,0.263 -0.742,0.115 -1.504,0.287 -2.316,0.439 -3.25,0.621 -7.107,1.359 -11.386,2.177 -2.145,0.395 -4.398,0.807 -6.739,1.188 -1.168,0.18 -2.372,0.392 -3.566,0.466 -0.074,0.003 -0.145,0.002 -0.212,-0.001 -0.022,-0.004 -0.075,-0.006 -0.072,-0.01 -0.008,0.012 0.007,-0.026 -0.018,0.026 -0.041,0.062 -0.01,0.059 -0.036,0.086 -0.008,0.009 -0.019,0.016 -0.031,0.02 0.284,-0.107 0.074,-0.039 0.136,-0.068 l -0.015,-0.032 c -0.079,-0.179 -0.196,-0.308 -0.295,-0.424 -0.203,-0.232 -0.369,-0.45 -0.446,-0.719 -0.16,-0.536 -0.05,-1.157 0.12,-1.74 0.094,-0.313 0.168,-0.554 0.371,-0.758 0.202,-0.203 0.437,-0.388 0.696,-0.544 0.512,-0.319 1.07,-0.573 1.629,-0.807 1.126,-0.456 2.273,-0.826 3.408,-1.162 2.271,-0.673 4.496,-1.209 6.608,-1.767 0.528,-0.141 1.049,-0.282 1.562,-0.442 0.256,-0.082 0.51,-0.162 0.763,-0.274 0.117,-0.056 0.277,-0.12 0.387,-0.271 0.084,-0.13 0.145,-0.257 0.19,-0.38 0.365,-0.989 0.67,-1.922 1.125,-2.771 0.884,-1.697 2.182,-3.012 3.596,-3.82 1.408,-0.816 2.845,-1.275 4.09,-1.646 1.255,-0.357 2.367,-0.552 3.281,-0.644 0.914,-0.094 1.63,-0.092 2.113,-0.07 0.242,0.01 0.426,0.028 0.549,0.039 C -0.065,-0.001 -0.001,0.006 0,0" /></g><g
           transform="translate(223.0392,27.2754)"
           id="g320"><path
             id="path322"
             style="fill:#ff9a6c;fill-opacity:1;fill-rule:nonzero;stroke:none"
             d="M 0,0 C 0.001,0.022 0.317,0.036 0.883,-0.042 1.446,-0.12 2.262,-0.303 3.197,-0.729 3.661,-0.949 4.159,-1.208 4.645,-1.587 5.112,-1.961 5.625,-2.493 5.707,-3.251 5.791,-4.014 5.299,-4.751 4.643,-5.149 3.968,-5.572 3.146,-5.646 2.367,-5.62 c -3.099,0.186 -5.868,0.644 -7.835,1.154 -0.982,0.254 -1.764,0.508 -2.295,0.707 -0.532,0.196 -0.816,0.329 -0.808,0.351 0.009,0.027 0.31,-0.06 0.853,-0.213 0.542,-0.155 1.329,-0.369 2.312,-0.588 1.961,-0.44 4.727,-0.853 7.786,-1.037 0.748,-0.027 1.497,0.051 2.07,0.408 0.576,0.348 0.975,0.957 0.914,1.555 C 5.314,-2.68 4.884,-2.187 4.45,-1.828 4.007,-1.465 3.523,-1.194 3.083,-0.967 1.281,-0.088 -0.019,-0.078 0,0" /></g><g
           transform="translate(285.4348,76.2669)"
           id="g324"><path
             id="path326"
             style="fill:#608bd6;fill-opacity:1;fill-rule:nonzero;stroke:none"
             d="M 0,0 C 0,0 10.629,17.496 13.018,29.043 15.407,40.59 27.75,58.906 31.732,63.684 35.714,68.462 51.64,74.036 51.64,74.036 l 5.874,3.167 45.491,4.001 c 0,0 30.261,-3.186 39.419,-11.548 9.158,-8.361 16.325,-27.473 16.325,-37.03 0,-9.556 9.248,-92.313 9.248,-92.313 l -112.1,0.148 2.512,40.801 c 0,0 -13.538,9.158 -17.121,17.121 -3.584,7.964 -1.593,3.982 -1.593,3.982 0,0 -12.708,-27.017 -17.088,-30.203 -4.38,-3.185 -55.289,-18.808 -55.289,-18.808 l -6.972,26.717 z" /></g><g
           transform="translate(417.7863,142.5872)"
           id="g328"><path
             id="path330"
             style="fill:#608bd6;fill-opacity:1;fill-rule:nonzero;stroke:none"
             d="m 0,0 c -1.229,-0.381 -16.41,-39.599 -17.48,-43.166 -1.071,-3.567 0,-26.042 0,-26.042 l 4.994,-9.276 c 0,0 -1.427,-6.778 -0.357,-9.988 l -22.475,-4.281 c 0,0 -5.708,3.924 -11.059,0 l -26.514,-2.242 c 0,0 7.785,-0.09 5.467,-12.028 -2.272,-11.695 -3.998,-14.268 -3.998,-14.268 l 93.183,2.128 c 0,0 10.351,0.511 8.773,20.419 -1.577,19.908 -6.02,74.816 -6.02,74.816 0,0 -6.793,29.424 -24.514,23.928" /></g><g
           transform="translate(400.0955,76.5145)"
           id="g332"><path
             id="path334"
             style="fill:#1a2e35;fill-opacity:1;fill-rule:nonzero;stroke:none"
             d="m 0,0 c -0.012,-0.005 -0.088,0.162 -0.221,0.483 -0.142,0.357 -0.33,0.826 -0.565,1.412 -0.247,0.613 -0.538,1.368 -0.826,2.262 -0.291,0.892 -0.665,1.895 -0.97,3.038 -0.33,1.135 -0.693,2.378 -0.994,3.736 -0.348,1.348 -0.617,2.809 -0.91,4.345 -0.526,3.082 -0.944,6.502 -1.092,10.11 -0.127,3.61 0.018,7.052 0.308,10.166 0.185,1.553 0.334,3.033 0.586,4.401 0.117,0.686 0.209,1.351 0.338,1.984 0.133,0.63 0.26,1.236 0.383,1.816 0.223,1.161 0.523,2.189 0.754,3.099 0.225,0.911 0.462,1.684 0.67,2.312 0.194,0.601 0.351,1.081 0.469,1.447 0.111,0.329 0.176,0.5 0.188,0.496 C -1.87,51.103 -1.91,50.925 -1.998,50.588 -2.1,50.218 -2.233,49.731 -2.4,49.123 -2.585,48.49 -2.801,47.714 -3.006,46.8 -3.218,45.888 -3.499,44.859 -3.705,43.698 -3.819,43.119 -3.939,42.514 -4.063,41.884 -4.183,41.253 -4.268,40.589 -4.378,39.905 -4.615,38.54 -4.752,37.066 -4.927,35.519 -5.197,32.418 -5.331,28.993 -5.204,25.4 c 0.147,-3.59 0.553,-6.993 1.057,-10.065 0.283,-1.531 0.539,-2.988 0.873,-4.333 0.287,-1.356 0.633,-2.598 0.946,-3.734 0.287,-1.144 0.643,-2.15 0.915,-3.046 C -1.146,3.325 -0.875,2.565 -0.649,1.945 -0.442,1.35 -0.276,0.873 -0.15,0.51 -0.04,0.18 0.012,0.005 0,0" /></g><g
           transform="translate(432.5172,33.9846)"
           id="g336"><path
             id="path338"
             style="fill:#1a2e35;fill-opacity:1;fill-rule:nonzero;stroke:none"
             d="m 0,0 c -0.011,-0.007 -0.093,0.087 -0.239,0.273 -0.168,0.223 -0.374,0.495 -0.623,0.824 -0.263,0.363 -0.59,0.803 -0.997,1.292 -0.403,0.493 -0.838,1.072 -1.378,1.663 -0.524,0.605 -1.101,1.265 -1.764,1.933 -0.637,0.693 -1.376,1.374 -2.14,2.105 -1.564,1.422 -3.362,2.9 -5.363,4.296 -2.014,1.38 -4.031,2.542 -5.914,3.504 -0.953,0.456 -1.852,0.908 -2.725,1.259 -0.859,0.385 -1.68,0.692 -2.43,0.969 -0.744,0.297 -1.44,0.499 -2.043,0.702 -0.602,0.208 -1.128,0.359 -1.561,0.477 -0.395,0.117 -0.722,0.214 -0.99,0.293 -0.226,0.071 -0.343,0.114 -0.34,0.127 0.003,0.012 0.126,-0.006 0.357,-0.054 0.274,-0.061 0.607,-0.135 1.011,-0.225 0.439,-0.097 0.974,-0.228 1.584,-0.418 0.611,-0.185 1.316,-0.371 2.07,-0.653 0.761,-0.263 1.592,-0.557 2.462,-0.932 0.884,-0.342 1.794,-0.785 2.758,-1.237 1.905,-0.952 3.944,-2.114 5.973,-3.505 2.017,-1.407 3.823,-2.905 5.385,-4.351 0.763,-0.743 1.499,-1.437 2.131,-2.144 0.657,-0.682 1.226,-1.355 1.74,-1.975 0.531,-0.605 0.953,-1.2 1.342,-1.706 0.393,-0.504 0.705,-0.958 0.95,-1.335 C -0.517,0.836 -0.33,0.55 -0.176,0.316 -0.05,0.116 0.011,0.007 0,0" /></g><g
           transform="translate(440.363,39.2149)"
           id="g340"><path
             id="path342"
             style="fill:#1a2e35;fill-opacity:1;fill-rule:nonzero;stroke:none"
             d="m 0,0 c -0.054,-0.05 -0.879,0.891 -2.433,2.156 -0.772,0.637 -1.75,1.323 -2.88,2.009 -1.141,0.666 -2.442,1.32 -3.866,1.869 -1.43,0.533 -2.837,0.907 -4.134,1.166 -1.3,0.236 -2.487,0.371 -3.488,0.406 -2.002,0.084 -3.243,-0.073 -3.25,0 -0.003,0.026 0.305,0.077 0.866,0.147 0.28,0.04 0.625,0.077 1.026,0.088 0.402,0.015 0.86,0.053 1.366,0.029 1.014,-0.001 2.22,-0.11 3.543,-0.332 1.318,-0.243 2.752,-0.613 4.204,-1.155 C -7.6,5.826 -6.283,5.152 -5.134,4.46 -3.998,3.748 -3.023,3.03 -2.264,2.358 -1.869,2.041 -1.551,1.708 -1.261,1.431 -0.967,1.156 -0.734,0.9 -0.55,0.685 -0.177,0.259 0.019,0.017 0,0" /></g><g
           transform="translate(431.7474,52.3295)"
           id="g344"><path
             id="path346"
             style="fill:#1a2e35;fill-opacity:1;fill-rule:nonzero;stroke:none"
             d="m 0,0 c -0.047,-0.067 -1.146,0.807 -3.154,1.799 -0.504,0.245 -1.056,0.508 -1.676,0.732 -0.604,0.26 -1.281,0.453 -1.984,0.676 -1.425,0.391 -3.024,0.702 -4.725,0.83 -1.702,0.105 -3.329,0.015 -4.794,-0.178 -0.727,-0.125 -1.424,-0.224 -2.058,-0.399 -0.644,-0.137 -1.228,-0.323 -1.76,-0.497 -2.125,-0.709 -3.332,-1.425 -3.37,-1.352 -0.013,0.022 0.285,0.203 0.838,0.511 0.274,0.159 0.615,0.342 1.031,0.514 0.413,0.177 0.874,0.407 1.415,0.577 0.533,0.192 1.12,0.395 1.77,0.547 0.641,0.191 1.346,0.303 2.084,0.44 1.484,0.215 3.139,0.317 4.87,0.21 1.729,-0.13 3.354,-0.457 4.795,-0.872 0.712,-0.236 1.395,-0.444 2.004,-0.719 0.623,-0.24 1.177,-0.521 1.679,-0.784 C -2.522,1.793 -2.097,1.502 -1.712,1.27 -1.324,1.043 -1.01,0.816 -0.761,0.62 -0.255,0.24 0.016,0.02 0,0" /></g><g
           transform="translate(377.2487,22.9172)"
           id="g348"><path
             id="path350"
             style="fill:#1a2e35;fill-opacity:1;fill-rule:nonzero;stroke:none"
             d="m 0,0 c -0.083,0.023 0.467,1.497 0.662,3.993 0.122,1.243 0.09,2.737 -0.035,4.382 -0.154,1.645 -0.469,3.438 -0.937,5.286 -0.492,1.845 -1.129,3.55 -1.787,5.066 -0.715,1.487 -1.408,2.81 -2.133,3.829 -1.398,2.076 -2.59,3.1 -2.528,3.162 0.017,0.019 0.308,-0.239 0.821,-0.725 0.268,-0.233 0.554,-0.556 0.875,-0.943 0.165,-0.193 0.339,-0.398 0.522,-0.612 0.174,-0.226 0.343,-0.475 0.528,-0.731 0.761,-1.013 1.488,-2.338 2.228,-3.837 C -1.1,17.345 -0.446,15.623 0.051,13.757 0.525,11.887 0.834,10.071 0.97,8.404 1.078,6.737 1.083,5.225 0.925,3.969 0.891,3.657 0.857,3.358 0.826,3.072 0.771,2.796 0.719,2.532 0.67,2.283 0.573,1.79 0.49,1.366 0.367,1.032 0.154,0.358 0.024,-0.008 0,0" /></g><g
           transform="translate(361.6262,49.8489)"
           id="g352"><path
             id="path354"
             style="fill:#1a2e35;fill-opacity:1;fill-rule:nonzero;stroke:none"
             d="m 0,0 c -0.006,-0.001 -0.022,0.069 -0.046,0.207 -0.025,0.159 -0.057,0.361 -0.097,0.613 -0.082,0.567 -0.195,1.358 -0.339,2.363 -0.291,2.052 -0.674,5.027 -1.115,8.706 -0.885,7.359 -1.938,17.547 -2.763,28.828 -0.82,11.284 -1.255,21.518 -1.447,28.928 -0.097,3.704 -0.149,6.703 -0.16,8.775 -0.003,1.016 -0.005,1.814 -0.007,2.387 0.003,0.255 0.006,0.46 0.008,0.62 0.003,0.14 0.009,0.212 0.015,0.212 0.006,0 0.014,-0.071 0.023,-0.211 0.007,-0.161 0.017,-0.365 0.029,-0.62 0.019,-0.572 0.045,-1.37 0.078,-2.385 0.066,-2.098 0.161,-5.087 0.278,-8.77 0.259,-7.405 0.736,-17.631 1.555,-28.909 C -3.163,29.47 -2.152,19.284 -1.335,11.92 -0.916,8.259 -0.577,5.287 -0.338,3.201 -0.223,2.192 -0.133,1.399 -0.069,0.83 -0.044,0.576 -0.024,0.372 -0.008,0.212 0.004,0.073 0.006,0.001 0,0" /></g><g
           transform="translate(325.0212,78.1176)"
           id="g356"><path
             id="path358"
             style="fill:#1a2e35;fill-opacity:1;fill-rule:nonzero;stroke:none"
             d="m 0,0 c -0.024,-0.009 -0.197,0.382 -0.487,1.097 -0.286,0.716 -0.715,1.746 -1.254,3.014 -1.079,2.536 -2.688,5.986 -4.606,9.73 -1.925,3.71 -3.666,7.066 -4.964,9.569 -0.625,1.231 -1.123,2.231 -1.452,2.929 -0.332,0.697 -0.504,1.088 -0.481,1.1 0.023,0.011 0.239,-0.357 0.61,-1.034 0.398,-0.734 0.923,-1.702 1.557,-2.872 1.307,-2.429 3.138,-5.772 5.062,-9.522 1.922,-3.75 3.499,-7.231 4.518,-9.799 C -0.988,2.928 -0.596,1.881 -0.351,1.148 -0.102,0.417 0.024,0.009 0,0" /></g><g
           transform="translate(319.2929,91.3774)"
           id="g360"><path
             id="path362"
             style="fill:#1a2e35;fill-opacity:1;fill-rule:nonzero;stroke:none"
             d="m 0,0 c -0.007,-0.025 -0.238,0.021 -0.65,0.124 -0.412,0.102 -1.002,0.275 -1.723,0.51 -1.443,0.47 -3.406,1.226 -5.485,2.254 -2.079,1.031 -3.87,2.134 -5.118,2.997 -0.625,0.431 -1.12,0.796 -1.45,1.062 -0.332,0.265 -0.508,0.42 -0.493,0.441 0.034,0.047 0.808,-0.48 2.088,-1.282 1.278,-0.802 3.076,-1.86 5.139,-2.883 2.063,-1.02 3.993,-1.809 5.407,-2.34 C -0.872,0.352 0.016,0.055 0,0" /></g><g
           transform="translate(309.6702,66.8691)"
           id="g364"><path
             id="path366"
             style="fill:#1a2e35;fill-opacity:1;fill-rule:nonzero;stroke:none"
             d="m 0,0 c -0.016,-0.021 -0.29,0.148 -0.77,0.47 -0.478,0.326 -1.182,0.779 -2.063,1.315 -1.761,1.076 -4.288,2.415 -7.235,3.523 -2.951,1.101 -5.737,1.751 -7.771,2.096 -1.017,0.175 -1.845,0.295 -2.419,0.363 -0.574,0.073 -0.891,0.126 -0.89,0.152 0.002,0.026 0.323,0.022 0.903,-0.007 0.581,-0.024 1.418,-0.105 2.447,-0.247 2.058,-0.281 4.882,-0.896 7.861,-2.007 C -6.962,4.54 -4.429,3.149 -2.693,2.009 -1.823,1.44 -1.138,0.951 -0.685,0.588 -0.229,0.228 0.015,0.021 0,0" /></g><g
           transform="translate(387.2571,157.408)"
           id="g368"><path
             id="path370"
             style="fill:#1a2e35;fill-opacity:1;fill-rule:nonzero;stroke:none"
             d="m 0,0 c 0.013,-0.002 -0.002,-0.203 -0.041,-0.584 -0.047,-0.414 -0.111,-0.969 -0.19,-1.664 -0.187,-1.443 -0.445,-3.533 -0.884,-6.099 -0.439,-2.565 -1.038,-5.615 -2.01,-8.924 -0.998,-3.294 -2.378,-6.871 -4.513,-10.25 -1.103,-1.781 -2.413,-3.357 -3.74,-4.794 l -0.146,-0.158 -0.133,0.177 c -1.926,2.573 -4.376,4.466 -6.81,5.649 -1.209,0.622 -2.439,1.002 -3.586,1.322 -1.164,0.256 -2.26,0.427 -3.265,0.438 -2.01,0.049 -3.608,-0.297 -4.653,-0.655 -1.044,-0.364 -1.592,-0.636 -1.608,-0.602 -0.005,0.01 0.129,0.081 0.391,0.209 0.268,0.113 0.642,0.343 1.175,0.514 1.042,0.399 2.656,0.788 4.7,0.771 1.021,0.004 2.139,-0.154 3.325,-0.402 1.17,-0.31 2.426,-0.686 3.66,-1.308 2.485,-1.185 4.991,-3.097 6.966,-5.72 l -0.279,0.019 c 1.305,1.423 2.597,2.979 3.688,4.74 2.109,3.339 3.489,6.88 4.498,10.149 0.985,3.284 1.608,6.317 2.08,8.87 0.471,2.555 0.769,4.638 1,6.074 0.108,0.691 0.195,1.242 0.26,1.654 C -0.052,-0.196 -0.013,0.002 0,0" /></g><g
           transform="translate(387.8687,156.9569)"
           id="g372"><path
             id="path374"
             style="fill:#608bd6;fill-opacity:1;fill-rule:nonzero;stroke:none"
             d="M 0,0 -6.912,9.161 -14.423,8.925 -38.836,-3.971 Z" /></g><g
           transform="translate(355.6784,131.264)"
           id="g376"><path
             id="path378"
             style="fill:#1a2e35;fill-opacity:1;fill-rule:nonzero;stroke:none"
             d="m 0,0 c -0.001,-0.012 -0.137,-0.009 -0.397,0.009 -0.259,0.024 -0.641,0.071 -1.124,0.185 -0.972,0.207 -2.325,0.753 -3.855,1.647 -0.762,0.457 -1.612,0.88 -2.622,1.086 -0.997,0.216 -2.113,0.248 -3.237,0.005 -2.242,-0.452 -4.484,-2.2 -5.419,-4.712 l -0.392,-1.051 0.03,1.122 c 0.008,0.278 0.016,0.577 0.024,0.878 0.088,5.65 0.092,10.78 0.324,14.485 0.103,1.853 0.252,3.35 0.403,4.378 0.068,0.514 0.147,0.911 0.204,1.178 0.056,0.268 0.091,0.407 0.104,0.405 0.035,-0.007 -0.065,-0.571 -0.163,-1.601 -0.107,-1.029 -0.215,-2.523 -0.284,-4.373 -0.164,-3.701 -0.126,-8.818 -0.215,-14.481 -0.008,-0.301 -0.016,-0.602 -0.024,-0.881 l -0.361,0.071 c 0.987,2.642 3.343,4.458 5.699,4.915 2.373,0.498 4.598,-0.211 6.058,-1.2 C -3.739,1.147 -2.435,0.579 -1.486,0.331 -0.543,0.068 0.005,0.038 0,0" /></g><g
           transform="translate(380.9562,210.4963)"
           id="g380"><path
             id="path382"
             style="fill:#ffbf9d;fill-opacity:1;fill-rule:nonzero;stroke:none"
             d="m 0,0 v -55.017 c 0,-3.144 -1.111,-6.186 -3.136,-8.59 -3.105,-3.687 -6.847,-6.787 -11.047,-9.152 l -11.098,-6.25 -9.18,8.196 c -2.7,2.411 -4.3,5.816 -4.444,9.432 -0.159,4.009 -0.158,8.046 -0.158,8.046 0,0 -15.553,1.117 -17.013,16.454 -0.688,7.221 -0.906,22.012 -0.944,35.642 -0.043,15.551 11.882,28.521 27.38,29.803 l 0.438,0.037 C -13.151,28.99 0.055,16.055 0,0" /></g><g
           transform="translate(341.8494,157.3805)"
           id="g384"><path
             id="path386"
             style="fill:#ff9a6c;fill-opacity:1;fill-rule:nonzero;stroke:none"
             d="m 0,0 c 0,0 9.768,0.014 19.545,7.345 0,0 -3.817,-11.441 -19.251,-11.326 z" /></g><g
           transform="translate(362.8939,225.9518)"
           id="g388"><path
             id="path390"
             style="fill:#0c092d;fill-opacity:1;fill-rule:nonzero;stroke:none"
             d="m 0,0 c 0.03,-0.02 0.06,-0.04 0.089,-0.059 2.605,-1.729 4.452,-4.389 5.136,-7.439 0.024,-0.107 0.047,-0.209 0.068,-0.306 0.963,-4.329 1.224,-8.793 2.228,-13.113 1.005,-4.319 0.82,-7.62 5.147,-8.594 2.729,-0.614 5.051,0.905 6.024,2.448 0.377,0.597 0.385,1.346 0.381,2.052 -0.057,10.641 2.083,14.774 1.149,25.829 C 19.967,3.826 18.317,6.534 15.726,8.084 13.273,9.551 10.304,11.038 7.833,9.607 5.355,8.173 2.427,3.084 0.601,0.878" /></g><g
           transform="translate(376.3552,203.1213)"
           id="g392"><path
             id="path394"
             style="fill:#ffbf9d;fill-opacity:1;fill-rule:nonzero;stroke:none"
             d="M 0,0 C 0.252,0.135 10.291,3.993 10.824,-6.531 11.358,-17.055 0.682,-15.419 0.648,-15.119 0.615,-14.818 0,0 0,0" /></g><g
           transform="translate(380.0162,192.1527)"
           id="g396"><path
             id="path398"
             style="fill:#ff9a6c;fill-opacity:1;fill-rule:nonzero;stroke:none"
             d="M 0,0 C 0.045,0.036 0.19,-0.119 0.507,-0.245 0.816,-0.368 1.34,-0.437 1.879,-0.204 2.97,0.26 3.817,2.073 3.771,3.972 3.75,4.931 3.503,5.833 3.125,6.571 2.765,7.325 2.24,7.837 1.675,7.908 1.111,8.009 0.732,7.654 0.618,7.351 0.492,7.05 0.57,6.843 0.515,6.822 0.487,6.794 0.28,6.987 0.343,7.426 0.376,7.637 0.486,7.892 0.723,8.106 0.966,8.325 1.332,8.448 1.724,8.426 2.538,8.411 3.306,7.701 3.721,6.891 4.181,6.08 4.481,5.067 4.506,3.99 4.546,1.866 3.561,-0.174 2.062,-0.69 1.331,-0.921 0.702,-0.729 0.371,-0.497 0.032,-0.254 -0.036,-0.021 0,0" /></g><g
           transform="translate(371.2163,233.9639)"
           id="g400"><path
             id="path402"
             style="fill:#0c092d;fill-opacity:1;fill-rule:nonzero;stroke:none"
             d="m 0,0 c 2.236,4.413 -5.343,9.857 -10.659,11.061 -5.315,1.204 -11.93,-1.886 -16.944,-4.022 -3.164,-1.348 -6.281,-3.122 -9.717,-3.264 -2.304,-0.095 -4.564,0.558 -6.794,1.145 -2.23,0.587 -4.544,1.116 -6.824,0.77 -2.28,-0.346 -4.54,-1.761 -5.234,-3.96 -0.694,-2.2 0.794,-5.011 3.096,-5.139 -3.037,1.356 -7.066,-1.089 -7.266,-4.409 -0.2,-3.321 3.503,-6.233 6.682,-5.257 -1.586,1.008 -3.719,-1.05 -3.381,-2.899 0.338,-1.848 2.141,-3.064 3.918,-3.675 4.536,-1.56 9.589,-0.524 13.993,1.375 4.405,1.9 8.41,4.623 12.765,6.632 4.356,2.01 11.636,5.57 16.276,4.354 3.416,-0.896 6.057,-4.703 7.859,-3.666 1.741,1.003 2.732,2.996 2.931,4.995 0.199,2 -0.253,4 -0.701,5.959" /></g><g
           transform="translate(316.8493,230.7397)"
           id="g404"><path
             id="path406"
             style="fill:#3f377b;fill-opacity:1;fill-rule:nonzero;stroke:none"
             d="m 0,0 c 0.083,0.059 0.605,-0.732 1.834,-1.864 1.229,-1.11 3.263,-2.535 6.143,-3.271 2.829,-0.732 6.592,-0.733 9.976,1.233 3.439,1.894 6.228,5.347 9.494,8.654 3.256,3.332 7.211,5.926 11.329,6.643 C 42.867,12.129 46.803,10.932 49.1,8.75 51.415,6.546 52.061,3.869 52.043,2.163 52.039,1.29 51.873,0.63 51.751,0.196 c -0.155,-0.428 -0.257,-0.641 -0.29,-0.63 -0.1,0.025 0.267,0.925 0.177,2.584 -0.101,1.616 -0.835,4.093 -3.032,6.055 -2.171,1.939 -5.84,2.982 -9.658,2.247 C 35.111,9.731 31.362,7.269 28.183,4.016 24.977,0.782 22.1,-2.765 18.417,-4.741 14.756,-6.802 10.717,-6.709 7.784,-5.845 4.783,-4.978 2.731,-3.389 1.552,-2.154 0.966,-1.524 0.551,-0.999 0.322,-0.609 0.081,-0.228 -0.03,-0.02 0,0" /></g><g
           transform="translate(378.9898,203.8002)"
           id="g408"><path
             id="path410"
             style="fill:#3f377b;fill-opacity:1;fill-rule:nonzero;stroke:none"
             d="m 0,0 c -0.036,-0.039 -0.476,0.251 -0.942,1.052 -0.468,0.787 -0.893,2.113 -0.838,3.761 -0.047,3.401 2.642,7.278 2.636,11.982 0.041,2.326 -0.549,4.543 -1.68,6.169 -1.122,1.622 -2.751,2.603 -4.18,3.047 -1.446,0.465 -2.714,0.365 -3.544,0.186 -0.832,-0.204 -1.269,-0.438 -1.315,-0.357 -0.028,0.04 0.341,0.401 1.199,0.745 0.85,0.317 2.241,0.551 3.857,0.135 1.598,-0.396 3.441,-1.392 4.766,-3.202 C 1.274,21.726 1.942,19.28 1.897,16.783 1.889,14.274 1.169,11.947 0.42,9.999 -0.322,8.043 -0.934,6.296 -1.045,4.773 -1.344,1.65 0.15,0.063 0,0" /></g><g
           transform="translate(376.1698,188.7378)"
           id="g412"><path
             id="path414"
             style="fill:#0c092d;fill-opacity:1;fill-rule:nonzero;stroke:none"
             d="M 0,0 -0.824,0.764 C -1.691,1.566 -1.742,2.919 -0.94,3.786 l 5.594,6.037 c 0.802,0.866 2.155,0.918 3.022,0.115 L 8.5,9.174 C 9.366,8.371 9.418,7.018 8.615,6.152 L 3.022,0.115 C 2.219,-0.751 0.866,-0.803 0,0" /></g><g
           transform="translate(444.261,106.5314)"
           id="g416"><path
             id="path418"
             style="fill:#1a2e35;fill-opacity:1;fill-rule:nonzero;stroke:none"
             d="m 0,0 c 0,0 0.018,-0.141 0.041,-0.418 0.021,-0.285 0.052,-0.696 0.093,-1.236 0.077,-1.098 0.19,-2.712 0.338,-4.812 0.284,-4.219 0.699,-10.381 1.225,-18.192 0.517,-7.819 1.143,-17.286 1.859,-28.1 0.178,-2.704 0.361,-5.492 0.549,-8.36 0.108,-1.431 0.161,-2.894 0.227,-4.373 0.059,-0.739 0,-1.485 -0.018,-2.235 -0.044,-0.749 -0.006,-1.509 -0.127,-2.262 -0.093,-0.755 -0.186,-1.515 -0.28,-2.28 -0.162,-0.754 -0.324,-1.512 -0.488,-2.275 -0.216,-0.75 -0.471,-1.494 -0.708,-2.248 -0.329,-0.718 -0.604,-1.47 -0.992,-2.17 -1.502,-2.794 -3.85,-5.405 -7.113,-6.482 l -0.015,-0.005 h -0.025 c -20.934,0.005 -44.878,0.01 -70.2,0.015 -7.56,0.005 -14.996,0.009 -22.263,0.013 h -0.244 l 0.066,0.235 c 0.68,2.423 1.354,4.826 2.022,7.21 0.334,1.192 0.667,2.378 0.998,3.559 0.336,1.185 0.673,2.345 0.831,3.541 0.357,2.378 0.116,4.815 -0.617,7.05 -0.375,1.11 -0.912,2.167 -1.676,3.028 -0.745,0.858 -1.785,1.514 -2.861,1.681 l -1.472,0.23 1.47,0.123 c 9.272,0.779 18.138,1.524 26.515,2.228 l -0.083,-0.031 c 1.673,1.206 3.714,1.864 5.712,1.755 1.995,-0.09 3.893,-0.735 5.531,-1.759 l -0.116,0.024 c 8.098,1.534 15.618,2.959 22.479,4.259 l -0.101,-0.171 c -0.284,0.877 -0.354,1.772 -0.387,2.642 -0.026,0.872 0.002,1.729 0.071,2.567 0.133,1.679 0.371,3.29 0.682,4.846 l 0.012,-0.081 c -1.805,3.364 -3.457,6.443 -4.98,9.283 l -0.011,0.021 -0.001,0.023 c -0.353,8.272 -0.476,14.793 -0.417,19.245 0.024,2.225 0.109,3.934 0.227,5.08 0.057,0.574 0.115,1.007 0.191,1.292 0.063,0.287 0.101,0.43 0.101,0.43 0,0 -0.02,-0.149 -0.073,-0.436 -0.067,-0.285 -0.116,-0.718 -0.163,-1.291 -0.101,-1.145 -0.168,-2.852 -0.175,-5.076 -0.025,-4.448 0.131,-10.967 0.513,-19.234 l -0.012,0.043 c 1.532,-2.835 3.194,-5.909 5.009,-9.267 l 0.02,-0.038 -0.008,-0.043 c -0.304,-1.542 -0.537,-3.151 -0.664,-4.816 -0.067,-0.832 -0.092,-1.681 -0.064,-2.539 0.033,-0.856 0.107,-1.736 0.38,-2.568 l 0.047,-0.143 -0.148,-0.028 c -6.858,-1.313 -14.375,-2.753 -22.47,-4.303 l -0.059,-0.011 -0.058,0.035 c -1.572,0.98 -3.446,1.616 -5.369,1.697 -1.932,0.102 -3.887,-0.533 -5.506,-1.701 l -0.038,-0.027 -0.045,-0.004 c -8.376,-0.712 -17.241,-1.467 -26.512,-2.256 l -0.003,0.353 c 1.24,-0.191 2.3,-0.89 3.101,-1.796 0.807,-0.908 1.364,-2.008 1.751,-3.151 0.754,-2.293 0.999,-4.78 0.637,-7.216 -0.161,-1.22 -0.506,-2.414 -0.839,-3.588 -0.331,-1.182 -0.663,-2.368 -0.997,-3.56 -0.667,-2.384 -1.34,-4.788 -2.018,-7.211 l -0.178,0.235 c 7.266,-0.003 14.702,-0.006 22.262,-0.009 25.322,-0.019 49.266,-0.037 70.2,-0.053 l -0.039,-0.005 c 1.529,0.477 2.919,1.419 4.072,2.512 1.145,1.117 2.103,2.404 2.835,3.796 0.382,0.686 0.652,1.426 0.978,2.131 0.234,0.743 0.487,1.476 0.701,2.215 0.163,0.754 0.325,1.503 0.486,2.248 0.094,0.757 0.187,1.509 0.28,2.256 0.122,0.746 0.085,1.5 0.13,2.243 0.019,0.744 0.079,1.484 0.022,2.219 -0.064,1.47 -0.114,2.92 -0.219,4.356 -0.183,2.868 -0.361,5.657 -0.533,8.362 -0.686,10.817 -1.286,20.286 -1.781,28.107 -0.486,7.814 -0.869,13.979 -1.132,18.2 C 0.241,-4.371 0.145,-2.756 0.08,-1.657 0.051,-1.116 0.029,-0.705 0.013,-0.419 0,-0.142 0,0 0,0" /></g><g
           transform="translate(423.9391,145.6335)"
           id="g420"><path
             id="path422"
             style="fill:#1a2e35;fill-opacity:1;fill-rule:nonzero;stroke:none"
             d="m 0,0 c 0.015,-0.028 -0.455,-0.288 -1.278,-0.793 -0.825,-0.503 -1.986,-1.287 -3.321,-2.379 -2.686,-2.162 -5.92,-5.75 -8.6,-10.292 -2.682,-4.542 -4.463,-9.001 -5.741,-12.213 -0.615,-1.576 -1.119,-2.869 -1.49,-3.822 -0.168,-0.417 -0.306,-0.76 -0.416,-1.036 -0.099,-0.235 -0.157,-0.356 -0.169,-0.352 -0.012,0.004 0.022,0.135 0.098,0.378 0.093,0.283 0.209,0.633 0.35,1.06 0.312,0.918 0.776,2.241 1.38,3.867 1.217,3.24 2.964,7.733 5.667,12.309 2.7,4.577 6.002,8.179 8.755,10.306 1.369,1.076 2.561,1.833 3.413,2.299 0.418,0.247 0.765,0.399 0.992,0.516 C -0.129,-0.041 -0.006,0.011 0,0" /></g><g
           id="g424"><g
             id="g426" /><g
             id="g438"><g
               style="opacity:0.30000299"
               id="g436"
               clip-path="url(#clipPath430)"><g
                 id="g434"
                 transform="translate(395.8505,118.2337)"><path
                   id="path432"
                   style="fill:#000000;fill-opacity:1;fill-rule:nonzero;stroke:none"
                   d="m 0,0 c -3.053,-6.631 -4.281,-14.167 -4.012,-21.463 0.27,-7.295 1.147,-14.609 0.432,-21.875 -0.715,-7.265 -3.24,-14.68 -8.659,-19.572 -0.651,-0.588 -1.357,-1.158 -1.748,-1.943 -0.391,-0.785 -0.358,-1.867 0.335,-2.404 0.616,-0.478 1.486,-0.368 2.254,-0.235 5.193,0.903 10.442,1.546 15.635,2.448 1.113,0.194 4.856,0.925 4.856,0.925 0,0 -0.495,2.849 -0.316,4.268 0.165,1.3 0.673,5.721 0.673,5.721 -0.15,0.679 -0.647,1.202 -0.995,1.847 -3.417,6.346 -4.304,11.044 -4.304,11.044 -1.772,3.629 -2.568,7.273 -3.389,10.661 C -1.517,-21.174 -1.451,-11.91 0,0" /></g></g></g></g><g
           id="g440"><g
             id="g442" /><g
             id="g454"><g
               style="opacity:0.30000299"
               id="g452"
               clip-path="url(#clipPath446)"><g
                 id="g450"
                 transform="translate(338.9636,128.944)"><path
                   id="path448"
                   style="fill:#000000;fill-opacity:1;fill-rule:nonzero;stroke:none"
                   d="m 0,0 c 0.426,-1.077 0.852,-2.154 1.278,-3.231 0.129,-0.328 0.292,-0.689 0.62,-0.816 0.638,-0.245 1.148,0.541 1.452,1.153 1.201,2.423 3.68,4.166 6.366,4.475 2.181,0.251 4.42,-0.382 6.569,0.066 -1.9,1.131 -3.821,2.273 -5.927,2.949 C 8.253,5.273 5.915,5.454 3.851,4.658 1.787,3.863 0.077,1.96 -0.081,-0.246" /></g></g></g></g><g
           id="g456"><g
             id="g458" /><g
             id="g470"><g
               style="opacity:0.30000299"
               id="g468"
               clip-path="url(#clipPath462)"><g
                 id="g466"
                 transform="translate(356.7058,131.6665)"><path
                   id="path464"
                   style="fill:#000000;fill-opacity:1;fill-rule:nonzero;stroke:none"
                   d="m 0,0 c 2.548,-0.044 5.121,-0.091 7.6,-0.682 2.479,-0.59 4.892,-1.778 6.508,-3.75 1.734,-2.116 2.383,-4.888 3.083,-7.533 0.134,-0.508 0.379,-1.113 0.902,-1.17 0.314,-0.035 0.605,0.155 0.859,0.342 4.29,3.152 7.129,7.985 8.68,13.077 1.551,5.092 1.909,10.468 1.996,15.79 C 27.577,12.409 26.686,8.23 25.332,4.254 23.978,0.279 21.978,-3.728 18.461,-6.024 c 0.117,0.898 -0.238,1.811 -0.8,2.52 -0.562,0.71 -1.316,1.243 -2.091,1.71 C 10.838,1.063 4.876,1.793 -0.405,0.162" /></g></g></g></g><g
           transform="translate(345.5496,47.1391)"
           id="g472"><path
             id="path474"
             style="fill:#ffbf9d;fill-opacity:1;fill-rule:nonzero;stroke:none"
             d="m 0,0 h -8.787 c 0,0 -19.827,7.164 -23.904,6.48 -3.672,-0.617 -17.115,-9.547 -19.749,-11.315 -0.294,-0.197 -0.515,-0.48 -0.637,-0.813 -0.537,-1.453 0.171,-3.071 1.603,-3.663 l 0.278,-0.115 -0.12,-0.4 c -0.149,-0.495 -0.231,-1.055 -0.202,-1.604 0.099,-1.889 2.636,-2.463 3.602,-0.837 l -0.508,-0.901 c -0.206,-0.366 -0.303,-0.784 -0.28,-1.204 l 0.045,-0.817 c 0.05,-0.909 0.654,-1.693 1.519,-1.975 0.822,-0.268 1.726,-0.034 2.308,0.605 1.705,1.876 5.388,5.632 7.879,6.047 2.216,0.37 5.908,0.418 8.138,0.408 1.135,-0.005 2.146,-0.704 2.558,-1.761 -1.478,-0.106 -11.78,-5.479 -15.426,-7.402 -1.127,-0.594 -1.973,-1.668 -2.12,-2.934 -0.133,-1.141 0.443,-2.336 2.701,-1.809 4.843,1.131 13.561,5.139 13.561,5.139 0,0 4.496,1.284 7.409,-0.771 4.098,-2.891 5.975,-3.951 9.494,-2.784 3.519,1.167 6.113,2.84 6.113,2.84 l 6.932,0.693 c 0,0 6.556,16.382 -2.407,18.893" /></g><g
           transform="translate(319.3679,43.7913)"
           id="g476"><path
             id="path478"
             style="fill:#ff9a6c;fill-opacity:1;fill-rule:nonzero;stroke:none"
             d="m 0,0 c -0.017,-0.075 -1.407,0.37 -3.725,0.517 -2.301,0.157 -5.574,-0.11 -8.831,-1.5 -3.258,-1.39 -5.716,-3.57 -7.195,-5.339 -1.498,-1.775 -2.137,-3.087 -2.203,-3.047 -0.02,0.01 0.124,0.343 0.441,0.917 0.315,0.575 0.827,1.378 1.559,2.298 1.445,1.837 3.925,4.096 7.251,5.515 3.325,1.419 6.671,1.647 8.998,1.419 C -2.535,0.673 -1.6,0.486 -0.967,0.316 -0.334,0.148 0.006,0.021 0,0" /></g><g
           transform="translate(317.268,48.6066)"
           id="g480"><path
             id="path482"
             style="fill:#ff9a6c;fill-opacity:1;fill-rule:nonzero;stroke:none"
             d="m 0,0 c -0.023,-0.091 -1.433,0.6 -3.878,0.676 -2.423,0.105 -5.83,-0.625 -9.017,-2.553 -3.187,-1.937 -5.572,-4.391 -7.267,-6.148 -0.805,-0.855 -1.474,-1.567 -1.992,-2.117 -0.471,-0.499 -0.74,-0.768 -0.76,-0.751 -0.019,0.017 0.213,0.318 0.651,0.848 0.439,0.529 1.083,1.286 1.907,2.199 1.651,1.808 4.026,4.318 7.268,6.289 3.249,1.966 6.75,2.673 9.221,2.497 1.239,-0.074 2.226,-0.3 2.878,-0.527 C -0.656,0.318 -0.415,0.194 -0.246,0.128 -0.08,0.056 0.005,0.012 0,0" /></g><g
           transform="translate(221.5737,16.3723)"
           id="g484"><path
             id="path486"
             style="fill:#170c2f;fill-opacity:1;fill-rule:nonzero;stroke:none"
             d="m 0,0 -23.811,59.772 c -2.107,5.141 1.673,10.776 7.229,10.776 h 74.181 c 3.347,0 6.323,-2.132 7.398,-5.302 L 85.452,4.956 109.338,4.842 c 1.941,-0.01 3.509,-2.848 3.509,-4.789 L 86.554,0.356 Z" /></g><g
           transform="translate(255.8562,49.1801)"
           id="g488"><path
             id="path490"
             style="fill:#f5f5f5;fill-opacity:1;fill-rule:nonzero;stroke:none"
             d="m 0,0 c 0,-2.661 -2.157,-4.818 -4.818,-4.818 -2.661,0 -4.819,2.157 -4.819,4.818 0,2.661 2.158,4.818 4.819,4.818 C -2.157,4.818 0,2.661 0,0" /></g><g
           transform="translate(539.1458,16.7284)"
           id="g492"><path
             id="path494"
             style="fill:#1a2e35;fill-opacity:1;fill-rule:nonzero;stroke:none"
             d="m 0,0 c 0,-0.103 -98.641,-0.187 -220.293,-0.187 -121.694,0 -220.313,0.084 -220.313,0.187 0,0.103 98.619,0.187 220.313,0.187 C -98.641,0.187 0,0.103 0,0" /></g><g
           transform="translate(164.1053,41.3708)"
           id="g496"><path
             id="path498"
             style="fill:#078f7d;fill-opacity:1;fill-rule:nonzero;stroke:none"
             d="m 0,0 c -7.018,4.069 -10.773,13.534 -11.053,21.28 -0.28,7.746 2.946,15.828 9.299,20.269 6.691,4.678 16.221,4.594 23.096,0.191 C 28.218,37.337 32.246,29.027 31.935,20.868 31.625,12.709 27.177,4.918 20.6,0.081" /></g><g
           transform="translate(175.3054,40.6225)"
           id="g500"><path
             id="path502"
             style="fill:#ede0fe;fill-opacity:1;fill-rule:nonzero;stroke:none"
             d="m 0,0 c -0.045,0 -0.089,0.631 -0.13,1.772 -0.036,1.267 -0.082,2.889 -0.137,4.832 -0.104,4.079 -0.265,9.712 -0.537,15.93 -0.275,6.22 -0.609,11.846 -0.864,15.918 -0.115,1.94 -0.212,3.56 -0.287,4.825 -0.06,1.14 -0.072,1.772 -0.027,1.777 0.046,0.004 0.143,-0.621 0.282,-1.755 0.14,-1.134 0.31,-2.778 0.496,-4.811 0.373,-4.067 0.782,-9.697 1.057,-15.925 C 0.126,16.336 0.213,10.693 0.198,6.609 0.192,4.567 0.166,2.915 0.126,1.773 0.088,0.631 0.045,0 0,0" /></g><g
           transform="translate(155.129,64.4052)"
           id="g504"><path
             id="path506"
             style="fill:#1a2e35;fill-opacity:1;fill-rule:nonzero;stroke:none"
             d="m 0,0 c -0.015,-0.181 -1.134,-0.237 -2.5,-0.125 -1.365,0.112 -2.46,0.35 -2.445,0.531 0.014,0.181 1.133,0.237 2.499,0.124 C -1.08,0.418 0.015,0.181 0,0" /></g><g
           transform="translate(155.5126,71.3549)"
           id="g508"><path
             id="path510"
             style="fill:#1a2e35;fill-opacity:1;fill-rule:nonzero;stroke:none"
             d="M 0,0 C -0.074,-0.166 -1.039,0.101 -2.156,0.597 -3.274,1.092 -4.12,1.629 -4.046,1.795 -3.972,1.961 -3.007,1.693 -1.889,1.198 -0.772,0.702 0.074,0.166 0,0" /></g><g
           transform="translate(159.0889,76.5146)"
           id="g512"><path
             id="path514"
             style="fill:#1a2e35;fill-opacity:1;fill-rule:nonzero;stroke:none"
             d="M 0,0 C -0.094,-0.151 -1.18,0.36 -2.307,1.297 -3.439,2.23 -4.144,3.201 -4.013,3.321 -3.878,3.448 -2.983,2.706 -1.888,1.803 -0.797,0.897 0.099,0.156 0,0" /></g><g
           transform="translate(162.6857,81.3815)"
           id="g516"><path
             id="path518"
             style="fill:#1a2e35;fill-opacity:1;fill-rule:nonzero;stroke:none"
             d="M 0,0 C -0.166,-0.073 -0.686,0.739 -1.162,1.815 -1.637,2.892 -1.888,3.823 -1.722,3.897 -1.556,3.97 -1.036,3.157 -0.56,2.081 -0.085,1.005 0.166,0.073 0,0" /></g><g
           transform="translate(168.3279,84.8355)"
           id="g520"><path
             id="path522"
             style="fill:#1a2e35;fill-opacity:1;fill-rule:nonzero;stroke:none"
             d="M 0,0 C -0.162,-0.076 -0.722,0.789 -1.093,1.989 -1.468,3.188 -1.497,4.218 -1.321,4.247 -1.14,4.279 -0.826,3.337 -0.465,2.184 -0.109,1.03 0.168,0.077 0,0" /></g><g
           transform="translate(177.7441,88.7286)"
           id="g524"><path
             id="path526"
             style="fill:#1a2e35;fill-opacity:1;fill-rule:nonzero;stroke:none"
             d="m 0,0 c 0.171,-0.06 0.067,-0.799 -0.234,-1.65 -0.3,-0.851 -0.682,-1.492 -0.854,-1.431 -0.171,0.06 -0.066,0.799 0.234,1.65 C -0.553,-0.58 -0.171,0.06 0,0" /></g><g
           transform="translate(184.7283,85.7315)"
           id="g528"><path
             id="path530"
             style="fill:#1a2e35;fill-opacity:1;fill-rule:nonzero;stroke:none"
             d="m 0,0 c 0.123,-0.133 -0.325,-0.748 -1,-1.374 -0.677,-0.625 -1.324,-1.024 -1.448,-0.891 -0.123,0.134 0.325,0.749 1.001,1.374 C -0.771,-0.266 -0.123,0.133 0,0" /></g><g
           transform="translate(190.8772,81.7616)"
           id="g532"><path
             id="path534"
             style="fill:#1a2e35;fill-opacity:1;fill-rule:nonzero;stroke:none"
             d="m 0,0 c 0.102,-0.15 -0.444,-0.698 -1.22,-1.224 -0.776,-0.525 -1.488,-0.83 -1.589,-0.679 -0.102,0.15 0.444,0.698 1.22,1.224 C -0.813,-0.154 -0.102,0.15 0,0" /></g><g
           transform="translate(195.2428,75.8407)"
           id="g536"><path
             id="path538"
             style="fill:#1a2e35;fill-opacity:1;fill-rule:nonzero;stroke:none"
             d="m 0,0 c 0.071,-0.167 -0.79,-0.694 -1.923,-1.178 -1.134,-0.483 -2.11,-0.74 -2.181,-0.573 -0.072,0.168 0.789,0.695 1.923,1.178 C -1.048,-0.089 -0.071,0.167 0,0" /></g><g
           transform="translate(196.9615,69.3844)"
           id="g540"><path
             id="path542"
             style="fill:#1a2e35;fill-opacity:1;fill-rule:nonzero;stroke:none"
             d="m 0,0 c 0.022,-0.18 -0.853,-0.437 -1.956,-0.574 -1.103,-0.136 -2.015,-0.101 -2.037,0.079 -0.023,0.18 0.853,0.437 1.956,0.574 C -0.934,0.215 -0.022,0.18 0,0" /></g><g
           transform="translate(197.8565,61.4363)"
           id="g544"><path
             id="path546"
             style="fill:#1a2e35;fill-opacity:1;fill-rule:nonzero;stroke:none"
             d="M 0,0 C -0.072,-0.167 -1.006,0.079 -2.084,0.548 -3.163,1.017 -3.979,1.532 -3.907,1.699 -3.834,1.865 -2.901,1.62 -1.822,1.151 -0.744,0.682 0.072,0.166 0,0" /></g><g
           transform="translate(197.0687,54.6163)"
           id="g548"><path
             id="path550"
             style="fill:#1a2e35;fill-opacity:1;fill-rule:nonzero;stroke:none"
             d="M 0,0 C -0.058,-0.166 -1.238,0.115 -2.471,0.925 -3.708,1.73 -4.439,2.698 -4.31,2.817 -4.176,2.949 -3.28,2.234 -2.111,1.476 -0.947,0.71 0.067,0.175 0,0" /></g><g
           transform="translate(193.518,48.4069)"
           id="g552"><path
             id="path554"
             style="fill:#1a2e35;fill-opacity:1;fill-rule:nonzero;stroke:none"
             d="m 0,0 c -0.109,-0.141 -1.048,0.411 -1.949,1.385 -0.905,0.971 -1.386,1.948 -1.238,2.046 0.154,0.104 0.853,-0.67 1.72,-1.599 C -0.605,0.9 0.115,0.145 0,0" /></g><g
           transform="translate(159.7992,47.6781)"
           id="g556"><path
             id="path558"
             style="fill:#1a2e35;fill-opacity:1;fill-rule:nonzero;stroke:none"
             d="m 0,0 c 0.084,-0.161 -0.903,-0.841 -2.203,-1.518 -1.301,-0.677 -2.423,-1.095 -2.507,-0.934 -0.083,0.161 0.903,0.84 2.204,1.518 C -1.206,-0.257 -0.084,0.161 0,0" /></g><g
           transform="translate(156.7194,53.2942)"
           id="g560"><path
             id="path562"
             style="fill:#1a2e35;fill-opacity:1;fill-rule:nonzero;stroke:none"
             d="M 0,0 C 0.075,-0.165 -0.716,-0.686 -1.767,-1.162 -2.817,-1.638 -3.73,-1.89 -3.805,-1.725 -3.88,-1.56 -3.089,-1.04 -2.038,-0.563 -0.988,-0.087 -0.075,0.165 0,0" /></g><g
           transform="translate(154.4551,58.2679)"
           id="g564"><path
             id="path566"
             style="fill:#1a2e35;fill-opacity:1;fill-rule:nonzero;stroke:none"
             d="m 0,0 c 0.026,-0.18 -0.948,-0.467 -2.174,-0.641 -1.227,-0.174 -2.242,-0.169 -2.267,0.011 -0.026,0.18 0.948,0.466 2.174,0.64 C -1.04,0.184 -0.025,0.18 0,0" /></g><g
           transform="translate(161.8815,61.0094)"
           id="g568"><path
             id="path570"
             style="fill:#1a2e35;fill-opacity:1;fill-rule:nonzero;stroke:none"
             d="m 0,0 c 0.054,-0.169 -0.896,-0.613 -2.163,-0.753 -1.266,-0.146 -2.291,0.075 -2.276,0.251 0.012,0.186 1.003,0.263 2.203,0.402 C -1.037,0.032 -0.053,0.178 0,0" /></g><g
           transform="translate(168.0505,67.1481)"
           id="g572"><path
             id="path574"
             style="fill:#1a2e35;fill-opacity:1;fill-rule:nonzero;stroke:none"
             d="m 0,0 c 0.054,-0.17 -0.702,-0.552 -1.722,-0.651 -1.019,-0.102 -1.835,0.126 -1.815,0.303 0.017,0.184 0.803,0.256 1.751,0.352 C -0.838,0.094 -0.053,0.177 0,0" /></g><g
           transform="translate(169.2295,72.0652)"
           id="g576"><path
             id="path578"
             style="fill:#1a2e35;fill-opacity:1;fill-rule:nonzero;stroke:none"
             d="M 0,0 C -0.059,-0.172 -0.878,-0.045 -1.827,0.284 -2.777,0.612 -3.499,1.017 -3.44,1.189 -3.381,1.361 -2.563,1.234 -1.613,0.905 -0.663,0.577 0.059,0.172 0,0" /></g><g
           transform="translate(171.4911,77.0381)"
           id="g580"><path
             id="path582"
             style="fill:#1a2e35;fill-opacity:1;fill-rule:nonzero;stroke:none"
             d="M 0,0 C -0.126,-0.126 -0.689,0.245 -1.089,0.942 -1.492,1.638 -1.531,2.31 -1.359,2.356 -1.182,2.408 -0.879,1.888 -0.519,1.27 -0.165,0.65 0.133,0.128 0,0" /></g><g
           transform="translate(168.7646,56.6789)"
           id="g584"><path
             id="path586"
             style="fill:#1a2e35;fill-opacity:1;fill-rule:nonzero;stroke:none"
             d="m 0,0 c 0.043,-0.177 -0.665,-0.501 -1.582,-0.725 -0.53,-0.13 -1.013,-0.197 -1.33,-0.196 l -0.13,0.384 c 0.237,0.042 0.391,0.033 0.422,-0.038 0.03,-0.07 -0.066,-0.189 -0.259,-0.335 l -0.129,0.384 c 0.28,0.147 0.74,0.31 1.27,0.44 C -0.822,0.138 -0.043,0.176 0,0" /></g><g
           transform="translate(170.0357,47.9613)"
           id="g588"><path
             id="path590"
             style="fill:#1a2e35;fill-opacity:1;fill-rule:nonzero;stroke:none"
             d="m 0,0 c 0.066,-0.169 -0.837,-0.682 -2.017,-1.146 -1.181,-0.464 -2.192,-0.703 -2.259,-0.534 -0.066,0.169 0.837,0.682 2.018,1.146 C -1.077,-0.07 -0.066,0.169 0,0" /></g><g
           transform="translate(163.0666,51.8338)"
           id="g592"><path
             id="path594"
             style="fill:#1a2e35;fill-opacity:1;fill-rule:nonzero;stroke:none"
             d="m 0,0 c 0.059,-0.172 -0.544,-0.532 -1.346,-0.805 -0.801,-0.273 -1.499,-0.355 -1.557,-0.183 -0.059,0.172 0.544,0.533 1.346,0.805 C -0.756,0.09 -0.058,0.172 0,0" /></g><g
           transform="translate(163.5996,69.5794)"
           id="g596"><path
             id="path598"
             style="fill:#1a2e35;fill-opacity:1;fill-rule:nonzero;stroke:none"
             d="M 0,0 C -0.042,-0.174 -1.091,-0.07 -2.303,0.361 -3.516,0.789 -4.396,1.369 -4.319,1.53 -4.24,1.697 -3.261,1.396 -2.083,0.981 -0.907,0.562 0.044,0.179 0,0" /></g><g
           transform="translate(180.4639,71.5083)"
           id="g600"><path
             id="path602"
             style="fill:#1a2e35;fill-opacity:1;fill-rule:nonzero;stroke:none"
             d="M 0,0 C 0.1,-0.152 -0.491,-0.717 -1.319,-1.264 -2.148,-1.81 -2.9,-2.13 -3,-1.979 c -0.1,0.152 0.49,0.718 1.319,1.264 C -0.853,-0.169 -0.1,0.152 0,0" /></g><g
           transform="translate(181.3808,62.7538)"
           id="g604"><path
             id="path606"
             style="fill:#1a2e35;fill-opacity:1;fill-rule:nonzero;stroke:none"
             d="M 0,0 C 0.037,-0.178 -0.584,-0.457 -1.386,-0.624 -2.189,-0.79 -2.87,-0.781 -2.906,-0.603 -2.943,-0.426 -2.323,-0.146 -1.52,0.02 -0.717,0.187 -0.037,0.178 0,0" /></g><g
           transform="translate(182.4464,52.9099)"
           id="g608"><path
             id="path610"
             style="fill:#1a2e35;fill-opacity:1;fill-rule:nonzero;stroke:none"
             d="M 0,0 C -0.076,-0.165 -0.97,0.087 -1.996,0.562 -3.022,1.037 -3.792,1.556 -3.716,1.721 -3.64,1.886 -2.746,1.634 -1.72,1.159 -0.694,0.684 0.076,0.165 0,0" /></g><g
           transform="translate(180.1911,43.3258)"
           id="g612"><path
             id="path614"
             style="fill:#1a2e35;fill-opacity:1;fill-rule:nonzero;stroke:none"
             d="m 0,0 c -0.14,-0.115 -0.721,0.359 -1.296,1.06 -0.576,0.701 -0.929,1.362 -0.788,1.477 0.14,0.116 0.72,-0.359 1.296,-1.06 C -0.213,0.777 0.14,0.115 0,0" /></g><g
           transform="translate(179.7301,77.9549)"
           id="g616"><path
             id="path618"
             style="fill:#1a2e35;fill-opacity:1;fill-rule:nonzero;stroke:none"
             d="m 0,0 c 0.111,-0.14 -0.272,-0.623 -0.93,-0.952 -0.656,-0.331 -1.272,-0.349 -1.319,-0.176 -0.049,0.177 0.432,0.464 1.024,0.764 C -0.631,-0.068 -0.113,0.146 0,0" /></g><g
           transform="translate(187.9941,69.1243)"
           id="g620"><path
             id="path622"
             style="fill:#1a2e35;fill-opacity:1;fill-rule:nonzero;stroke:none"
             d="m 0,0 c 0.06,-0.167 -0.704,-0.588 -1.75,-0.731 -1.046,-0.148 -1.897,0.048 -1.884,0.226 0.01,0.185 0.819,0.286 1.793,0.425 C -0.866,0.052 -0.06,0.175 0,0" /></g><g
           transform="translate(186.3473,77.051)"
           id="g624"><path
             id="path626"
             style="fill:#1a2e35;fill-opacity:1;fill-rule:nonzero;stroke:none"
             d="m 0,0 c 0.081,-0.159 -0.679,-0.701 -1.758,-1.044 -1.079,-0.347 -2.011,-0.346 -2.038,-0.17 -0.029,0.183 0.812,0.466 1.838,0.796 C -0.932,-0.092 -0.082,0.166 0,0" /></g><g
           transform="translate(189.7981,56.8479)"
           id="g628"><path
             id="path630"
             style="fill:#1a2e35;fill-opacity:1;fill-rule:nonzero;stroke:none"
             d="m 0,0 c -0.003,-0.177 -1.301,-0.292 -2.867,-0.005 -1.567,0.281 -2.742,0.845 -2.682,1.011 0.06,0.176 1.288,-0.093 2.8,-0.364 C -1.239,0.365 0.005,0.186 0,0" /></g><g
           transform="translate(186.7273,45.3333)"
           id="g632"><path
             id="path634"
             style="fill:#1a2e35;fill-opacity:1;fill-rule:nonzero;stroke:none"
             d="M 0,0 C -0.109,-0.141 -1.065,0.422 -2.019,1.382 -2.975,2.341 -3.534,3.299 -3.392,3.408 -3.246,3.521 -2.478,2.772 -1.553,1.846 -0.631,0.917 0.114,0.145 0,0" /></g><g
           transform="translate(173.224,86.4209)"
           id="g636"><path
             id="path638"
             style="fill:#ede0fe;fill-opacity:1;fill-rule:nonzero;stroke:none"
             d="m 0,0 c 0.098,-0.141 -2.622,-1.244 -5.765,-4.556 -3.141,-3.239 -6.382,-8.96 -7.18,-15.872 -0.382,-3.435 -0.054,-6.759 0.433,-9.725 0.513,-2.97 1.194,-5.607 1.822,-7.804 0.63,-2.198 1.21,-3.958 1.599,-5.178 0.39,-1.22 0.599,-1.899 0.554,-1.915 -0.041,-0.015 -0.33,0.634 -0.795,1.83 -0.464,1.196 -1.112,2.937 -1.804,5.129 -0.688,2.191 -1.421,4.835 -1.973,7.834 -0.525,2.996 -0.882,6.373 -0.489,9.906 0.815,7.07 4.207,12.898 7.499,16.118 1.638,1.637 3.177,2.729 4.3,3.361 0.545,0.345 1.016,0.529 1.316,0.684 C -0.176,-0.045 -0.01,0.02 0,0" /></g><g
           transform="translate(182.1911,40.9485)"
           id="g640"><path
             id="path642"
             style="fill:#ede0fe;fill-opacity:1;fill-rule:nonzero;stroke:none"
             d="m 0,0 c -0.143,0.072 1.478,2.566 2.956,7.062 1.521,4.441 2.78,11.018 1.767,18.16 -0.475,3.562 -1.505,6.863 -2.801,9.684 -1.345,2.782 -3.079,5.061 -4.775,6.65 -1.754,1.551 -3.477,2.441 -4.678,2.957 -1.216,0.507 -1.945,0.626 -1.935,0.681 0.004,0.022 0.189,0.011 0.538,-0.041 0.346,-0.064 0.856,-0.179 1.489,-0.401 1.256,-0.454 3.041,-1.291 4.893,-2.846 1.804,-1.61 3.594,-3.884 5.015,-6.739 C 3.825,32.298 4.89,28.942 5.374,25.314 6.406,18.038 5.047,11.36 3.395,6.91 3.023,5.774 2.545,4.801 2.189,3.925 1.766,3.076 1.416,2.339 1.095,1.755 0.426,0.602 0.039,-0.023 0,0" /></g><g
           transform="translate(156.7194,42.5032)"
           id="g644"><path
             id="path646"
             style="fill:#1a2e35;fill-opacity:1;fill-rule:nonzero;stroke:none"
             d="m 0,0 h 36.249 l 0.222,-7.255 H 0 Z" /></g><g
           transform="translate(159.7993,38.8759)"
           id="g648"><path
             id="path650"
             style="fill:#1a2e35;fill-opacity:1;fill-rule:nonzero;stroke:none"
             d="m 0,0 2.082,-22.148 h 26.5 l 2.128,21.905 z" /></g><g
           transform="translate(193.1906,35.1613)"
           id="g652"><path
             id="path654"
             style="fill:#375a64;fill-opacity:1;fill-rule:nonzero;stroke:none"
             d="m 0,0 c 0,-0.182 -8.163,-0.329 -18.23,-0.329 -10.071,0 -18.232,0.147 -18.232,0.329 0,0.182 8.161,0.329 18.232,0.329 C -8.163,0.329 0,0.182 0,0" /></g><g
           transform="translate(189.5071,28.4151)"
           id="g656"><path
             id="path658"
             style="fill:#375a64;fill-opacity:1;fill-rule:nonzero;stroke:none"
             d="m 0,0 c 0.035,-0.021 -0.209,-0.531 -0.776,-1.384 -0.569,-0.849 -1.474,-2.041 -2.812,-3.32 l -0.167,-0.159 -0.164,0.173 c -1.745,1.831 -4.143,4.075 -7.104,6.218 l 0.401,0.018 c -1.012,-0.889 -2.067,-1.814 -3.15,-2.765 -1.287,-1.12 -2.534,-2.206 -3.723,-3.241 l -0.206,-0.18 -0.206,0.174 c -2.257,1.897 -4.31,3.623 -6.053,5.088 l 0.353,0.038 c -1.251,-1.525 -2.301,-2.806 -3.131,-3.82 -0.754,-0.894 -1.191,-1.376 -1.23,-1.346 -0.039,0.031 0.324,0.57 1.012,1.516 0.785,1.05 1.777,2.376 2.959,3.956 l 0.151,0.202 0.201,-0.164 c 1.769,-1.433 3.852,-3.122 6.143,-4.979 l -0.412,-0.006 c 1.185,1.04 2.427,2.131 3.709,3.257 1.087,0.947 2.145,1.869 3.16,2.753 l 0.194,0.17 0.207,-0.152 c 2.984,-2.193 5.371,-4.513 7.069,-6.42 l -0.331,0.014 C -1.217,-1.919 -0.104,0.079 0,0" /></g><g
           id="g660"><g
             id="g662" /><g
             id="g670"><g
               style="opacity:0.30000299"
               id="g668"
               clip-path="url(#clipPath666)" /></g></g><g
           id="g672"><g
             id="g674" /><g
             id="g682"><g
               style="opacity:0.30000299"
               id="g680"
               clip-path="url(#clipPath678)" /></g></g><g
           id="g684"><g
             id="g686" /><g
             id="g694"><g
               style="opacity:0.30000299"
               id="g692"
               clip-path="url(#clipPath690)" /></g></g><g
           id="g696"><g
             id="g698" /><g
             id="g706"><g
               style="opacity:0.30000299"
               id="g704"
               clip-path="url(#clipPath702)" /></g></g><path
           id="path708"
           style="fill:#170c2f;fill-opacity:1;fill-rule:nonzero;stroke:none"
           d="M 558.037,14.71 H 74.704 v 3.333 h 483.333 z" /><g
           transform="translate(242.3553,284.5218)"
           id="g710"><path
             id="path712"
             style="fill:#a593f1;fill-opacity:1;fill-rule:nonzero;stroke:none"
             d="M 0,0 C 1.069,16.275 15.129,28.603 31.404,27.534 47.679,26.465 60.006,12.405 58.938,-3.87 57.869,-20.145 43.809,-32.472 27.534,-31.404 11.259,-30.335 -1.069,-16.275 0,0" /></g><g
           transform="translate(242.3553,284.5218)"
           id="g714"><path
             id="path716"
             style="fill:#1a2e35;fill-opacity:1;fill-rule:nonzero;stroke:none"
             d="m 0,0 c 0.012,-0.001 0.021,-0.164 0.028,-0.481 0.003,-0.351 0.008,-0.815 0.013,-1.404 0.001,-0.311 0.001,-0.656 0.002,-1.032 0.017,-0.38 0.073,-0.793 0.113,-1.241 0.086,-0.896 0.156,-1.934 0.426,-3.073 0.378,-2.304 1.273,-5.054 2.768,-8.003 1.51,-2.938 3.757,-6.049 6.912,-8.769 3.146,-2.697 7.181,-5.078 11.939,-6.243 4.728,-1.132 10.134,-1.335 15.4,0.282 1.335,0.333 2.606,0.9 3.909,1.423 1.245,0.646 2.55,1.23 3.723,2.063 1.238,0.736 2.339,1.686 3.488,2.594 1.051,1.021 2.15,2.015 3.075,3.191 1.892,2.294 3.581,4.87 4.689,7.752 1.141,2.861 1.856,5.932 2.106,9.09 0.166,3.163 -0.14,6.303 -0.897,9.29 -0.722,3.003 -2.06,5.778 -3.635,8.301 -0.763,1.287 -1.723,2.417 -2.632,3.566 -1.02,1.051 -1.988,2.137 -3.119,3.029 -1.055,0.979 -2.272,1.73 -3.421,2.533 -1.224,0.689 -2.411,1.417 -3.691,1.922 -5.01,2.292 -10.397,2.798 -15.233,2.293 C 21.093,26.55 16.782,24.716 13.311,22.454 9.828,20.169 7.193,17.379 5.312,14.664 3.445,11.936 2.198,9.327 1.522,7.092 1.106,5.997 0.901,4.978 0.698,4.101 0.6,3.662 0.49,3.26 0.424,2.886 0.374,2.513 0.329,2.172 0.287,1.863 0.205,1.28 0.14,0.821 0.091,0.473 0.043,0.159 0.012,-0.001 0,0 -0.012,0.001 -0.005,0.163 0.02,0.478 0.052,0.83 0.095,1.293 0.149,1.88 0.18,2.193 0.215,2.537 0.252,2.914 c 0.057,0.378 0.156,0.785 0.244,1.229 0.183,0.888 0.369,1.921 0.769,3.032 0.643,2.268 1.865,4.923 3.728,7.709 1.875,2.771 4.523,5.629 8.047,7.979 3.511,2.326 7.891,4.222 12.855,4.791 4.928,0.541 10.428,0.047 15.558,-2.278 1.309,-0.513 2.526,-1.252 3.778,-1.955 1.178,-0.816 2.424,-1.582 3.505,-2.581 1.158,-0.909 2.153,-2.016 3.197,-3.091 0.933,-1.173 1.915,-2.328 2.699,-3.643 1.616,-2.579 2.988,-5.419 3.73,-8.493 0.778,-3.057 1.092,-6.272 0.922,-9.51 -0.255,-3.231 -0.988,-6.377 -2.159,-9.305 -1.139,-2.949 -2.869,-5.585 -4.808,-7.929 -0.95,-1.201 -2.075,-2.217 -3.153,-3.258 -1.175,-0.928 -2.306,-1.896 -3.573,-2.646 -1.202,-0.848 -2.537,-1.444 -3.811,-2.1 -1.334,-0.533 -2.636,-1.106 -4.001,-1.444 -5.389,-1.633 -10.906,-1.405 -15.721,-0.224 -4.846,1.213 -8.941,3.664 -12.118,6.43 -3.187,2.79 -5.439,5.969 -6.935,8.963 -1.483,3.005 -2.348,5.798 -2.689,8.13 -0.251,1.154 -0.301,2.202 -0.366,3.107 -0.029,0.452 -0.074,0.868 -0.081,1.25 0.012,0.379 0.023,0.725 0.033,1.039 0.023,0.589 0.041,1.054 0.055,1.407 C -0.026,-0.161 -0.012,0.001 0,0" /></g><g
           transform="translate(285.2332,281.6783)"
           id="g718"><path
             id="path720"
             style="fill:#1a2e35;fill-opacity:1;fill-rule:nonzero;stroke:none"
             d="m 0,0 c 0,-0.024 -0.369,-0.048 -1.043,-0.069 -0.739,-0.015 -1.702,-0.035 -2.871,-0.058 -2.435,-0.034 -5.829,-0.057 -9.659,-0.063 h -0.19 V 0 c 0,0.613 -10e-4,1.259 -10e-4,1.915 0,4.278 0.021,8.151 0.056,10.954 0.024,1.351 0.045,2.47 0.06,3.319 0.023,0.784 0.048,1.217 0.075,1.217 0.026,0 0.051,-0.433 0.074,-1.217 0.016,-0.849 0.036,-1.968 0.061,-3.319 0.034,-2.803 0.056,-6.676 0.056,-10.954 C -13.383,1.259 -13.383,0.613 -13.384,0 l -0.189,0.189 C -9.743,0.184 -6.349,0.161 -3.914,0.127 -2.745,0.103 -1.782,0.084 -1.043,0.069 -0.369,0.048 0,0.024 0,0" /></g><g
           transform="translate(271.7505,307.2683)"
           id="g722"><path
             id="path724"
             style="fill:#1a2e35;fill-opacity:1;fill-rule:nonzero;stroke:none"
             d="m 0,0 c 0.106,0 0.191,-1.111 0.191,-2.481 0,-1.37 -0.085,-2.48 -0.191,-2.48 -0.106,0 -0.191,1.11 -0.191,2.48 C -0.191,-1.111 -0.106,0 0,0" /></g><g
           transform="translate(285.2067,303.2841)"
           id="g726"><path
             id="path728"
             style="fill:#1a2e35;fill-opacity:1;fill-rule:nonzero;stroke:none"
             d="m 0,0 c 0.075,-0.075 -0.639,-0.909 -1.594,-1.864 -0.955,-0.955 -1.789,-1.669 -1.864,-1.594 -0.075,0.075 0.639,0.909 1.594,1.864 C -0.909,-0.639 -0.075,0.075 0,0" /></g><g
           transform="translate(293.0742,294.6889)"
           id="g730"><path
             id="path732"
             style="fill:#1a2e35;fill-opacity:1;fill-rule:nonzero;stroke:none"
             d="m 0,0 c 0.048,-0.096 -0.888,-0.66 -2.035,-1.358 -1.149,-0.697 -2.08,-1.269 -2.143,-1.181 -0.061,0.083 0.781,0.802 1.945,1.507 C -1.071,-0.324 -0.046,0.093 0,0" /></g><g
           transform="translate(297.6856,281.9347)"
           id="g734"><path
             id="path736"
             style="fill:#1a2e35;fill-opacity:1;fill-rule:nonzero;stroke:none"
             d="m 0,0 c 0,-0.106 -1.515,-0.191 -3.383,-0.191 -1.868,0 -3.383,0.085 -3.383,0.191 0,0.105 1.515,0.191 3.383,0.191 C -1.515,0.191 0,0.105 0,0" /></g><g
           transform="translate(250.777,282.3856)"
           id="g738"><path
             id="path740"
             style="fill:#1a2e35;fill-opacity:1;fill-rule:nonzero;stroke:none"
             d="m 0,0 c 0,-0.106 -1.431,-0.191 -3.195,-0.191 -1.765,0 -3.195,0.085 -3.195,0.191 0,0.106 1.43,0.191 3.195,0.191 C -1.431,0.191 0,0.106 0,0" /></g><g
           transform="translate(254.0944,272.8897)"
           id="g742"><path
             id="path744"
             style="fill:#1a2e35;fill-opacity:1;fill-rule:nonzero;stroke:none"
             d="m 0,0 c 0.069,-0.08 -1.012,-1.06 -2.414,-2.19 -1.403,-1.13 -2.591,-1.977 -2.654,-1.892 -0.063,0.084 1.018,1.065 2.414,2.19 C -1.257,-0.767 -0.069,0.08 0,0" /></g><g
           transform="translate(262.2789,265.5462)"
           id="g746"><path
             id="path748"
             style="fill:#1a2e35;fill-opacity:1;fill-rule:nonzero;stroke:none"
             d="m 0,0 c 0.088,-0.064 -0.714,-1.297 -1.643,-2.848 -0.934,-1.549 -1.646,-2.836 -1.744,-2.788 -0.092,0.043 0.472,1.418 1.416,2.985 C -1.031,-1.083 -0.082,0.061 0,0" /></g><g
           transform="translate(271.7505,256.0746)"
           id="g750"><path
             id="path752"
             style="fill:#1a2e35;fill-opacity:1;fill-rule:nonzero;stroke:none"
             d="m 0,0 c -0.106,0 -0.191,1.515 -0.191,3.383 0,1.868 0.085,3.383 0.191,3.383 0.106,0 0.191,-1.515 0.191,-3.383 C 0.191,1.515 0.106,0 0,0" /></g><g
           transform="translate(286.3322,260.5819)"
           id="g754"><path
             id="path756"
             style="fill:#1a2e35;fill-opacity:1;fill-rule:nonzero;stroke:none"
             d="M 0,0 C -0.053,-0.085 -1.377,0.676 -2.789,1.911 -4.205,3.141 -5.14,4.349 -5.062,4.413 -4.98,4.486 -3.932,3.41 -2.538,2.199 -1.149,0.983 0.061,0.092 0,0" /></g><g
           transform="translate(293.1753,267.9521)"
           id="g758"><path
             id="path760"
             style="fill:#1a2e35;fill-opacity:1;fill-rule:nonzero;stroke:none"
             d="M 0,0 C -0.075,-0.075 -1.078,0.807 -2.24,1.97 -3.403,3.132 -4.284,4.135 -4.21,4.21 -4.135,4.284 -3.132,3.403 -1.97,2.24 -0.807,1.078 0.075,0.075 0,0" /></g><g
           transform="translate(253.784,291.4818)"
           id="g762"><path
             id="path764"
             style="fill:#1a2e35;fill-opacity:1;fill-rule:nonzero;stroke:none"
             d="M 0,0 C -0.075,-0.075 -0.96,0.689 -1.977,1.706 -2.994,2.724 -3.758,3.609 -3.684,3.683 -3.609,3.758 -2.724,2.994 -1.707,1.977 -0.69,0.96 0.075,0.074 0,0" /></g><g
           transform="translate(262.2295,300.3785)"
           id="g766"><path
             id="path768"
             style="fill:#1a2e35;fill-opacity:1;fill-rule:nonzero;stroke:none"
             d="M 0,0 C -0.075,-0.075 -0.945,0.67 -1.943,1.665 -2.942,2.659 -3.691,3.525 -3.617,3.6 -3.542,3.675 -2.672,2.93 -1.673,1.935 -0.675,0.941 0.074,0.075 0,0" /></g><g
           id="g770"><g
             id="g772" /><g
             id="g850"><g
               style="opacity:0.19999701"
               id="g848"
               clip-path="url(#clipPath776)"><path
                 id="path778"
                 style="fill:#ffffff;fill-opacity:1;fill-rule:nonzero;stroke:none"
                 d="m 94.125,113.724 h 2.299 v -2.299 h -2.299 z" /><path
                 id="path780"
                 style="fill:#ffffff;fill-opacity:1;fill-rule:nonzero;stroke:none"
                 d="m 94.125,104.867 h 2.299 v -2.299 h -2.299 z" /><path
                 id="path782"
                 style="fill:#ffffff;fill-opacity:1;fill-rule:nonzero;stroke:none"
                 d="m 94.125,96.009 h 2.299 V 93.71 h -2.299 z" /><path
                 id="path784"
                 style="fill:#ffffff;fill-opacity:1;fill-rule:nonzero;stroke:none"
                 d="m 94.125,87.152 h 2.299 v -2.299 h -2.299 z" /><path
                 id="path786"
                 style="fill:#ffffff;fill-opacity:1;fill-rule:nonzero;stroke:none"
                 d="m 94.125,78.294 h 2.299 v -2.299 h -2.299 z" /><path
                 id="path788"
                 style="fill:#ffffff;fill-opacity:1;fill-rule:nonzero;stroke:none"
                 d="m 86.37,113.724 h 2.299 v -2.299 H 86.37 Z" /><path
                 id="path790"
                 style="fill:#ffffff;fill-opacity:1;fill-rule:nonzero;stroke:none"
                 d="m 86.37,104.867 h 2.299 v -2.299 H 86.37 Z" /><path
                 id="path792"
                 style="fill:#ffffff;fill-opacity:1;fill-rule:nonzero;stroke:none"
                 d="m 86.37,96.009 h 2.299 V 93.71 H 86.37 Z" /><path
                 id="path794"
                 style="fill:#ffffff;fill-opacity:1;fill-rule:nonzero;stroke:none"
                 d="m 86.37,87.152 h 2.299 V 84.853 H 86.37 Z" /><path
                 id="path796"
                 style="fill:#ffffff;fill-opacity:1;fill-rule:nonzero;stroke:none"
                 d="m 86.37,78.294 h 2.299 V 75.995 H 86.37 Z" /><path
                 id="path798"
                 style="fill:#ffffff;fill-opacity:1;fill-rule:nonzero;stroke:none"
                 d="m 78.615,113.724 h 2.299 v -2.299 h -2.299 z" /><path
                 id="path800"
                 style="fill:#ffffff;fill-opacity:1;fill-rule:nonzero;stroke:none"
                 d="m 78.615,104.867 h 2.299 v -2.299 h -2.299 z" /><path
                 id="path802"
                 style="fill:#ffffff;fill-opacity:1;fill-rule:nonzero;stroke:none"
                 d="m 78.615,96.009 h 2.299 V 93.71 h -2.299 z" /><path
                 id="path804"
                 style="fill:#ffffff;fill-opacity:1;fill-rule:nonzero;stroke:none"
                 d="m 78.615,87.152 h 2.299 v -2.299 h -2.299 z" /><path
                 id="path806"
                 style="fill:#ffffff;fill-opacity:1;fill-rule:nonzero;stroke:none"
                 d="m 78.615,78.294 h 2.299 v -2.299 h -2.299 z" /><path
                 id="path808"
                 style="fill:#ffffff;fill-opacity:1;fill-rule:nonzero;stroke:none"
                 d="m 70.859,113.724 h 2.299 v -2.299 h -2.299 z" /><path
                 id="path810"
                 style="fill:#ffffff;fill-opacity:1;fill-rule:nonzero;stroke:none"
                 d="m 70.859,104.867 h 2.299 v -2.299 h -2.299 z" /><path
                 id="path812"
                 style="fill:#ffffff;fill-opacity:1;fill-rule:nonzero;stroke:none"
                 d="m 70.859,96.009 h 2.299 V 93.71 h -2.299 z" /><path
                 id="path814"
                 style="fill:#ffffff;fill-opacity:1;fill-rule:nonzero;stroke:none"
                 d="m 70.859,87.152 h 2.299 v -2.299 h -2.299 z" /><path
                 id="path816"
                 style="fill:#ffffff;fill-opacity:1;fill-rule:nonzero;stroke:none"
                 d="m 70.859,78.294 h 2.299 v -2.299 h -2.299 z" /><path
                 id="path818"
                 style="fill:#ffffff;fill-opacity:1;fill-rule:nonzero;stroke:none"
                 d="m 63.104,113.724 h 2.299 v -2.299 h -2.299 z" /><path
                 id="path820"
                 style="fill:#ffffff;fill-opacity:1;fill-rule:nonzero;stroke:none"
                 d="m 63.104,104.867 h 2.299 v -2.299 h -2.299 z" /><path
                 id="path822"
                 style="fill:#ffffff;fill-opacity:1;fill-rule:nonzero;stroke:none"
                 d="m 63.104,96.009 h 2.299 V 93.71 h -2.299 z" /><path
                 id="path824"
                 style="fill:#ffffff;fill-opacity:1;fill-rule:nonzero;stroke:none"
                 d="m 63.104,87.152 h 2.299 v -2.299 h -2.299 z" /><path
                 id="path826"
                 style="fill:#ffffff;fill-opacity:1;fill-rule:nonzero;stroke:none"
                 d="m 63.104,78.294 h 2.299 v -2.299 h -2.299 z" /><path
                 id="path828"
                 style="fill:#ffffff;fill-opacity:1;fill-rule:nonzero;stroke:none"
                 d="m 55.349,113.724 h 2.299 v -2.299 h -2.299 z" /><path
                 id="path830"
                 style="fill:#ffffff;fill-opacity:1;fill-rule:nonzero;stroke:none"
                 d="m 55.349,104.867 h 2.299 v -2.299 h -2.299 z" /><path
                 id="path832"
                 style="fill:#ffffff;fill-opacity:1;fill-rule:nonzero;stroke:none"
                 d="m 55.349,96.009 h 2.299 V 93.71 h -2.299 z" /><path
                 id="path834"
                 style="fill:#ffffff;fill-opacity:1;fill-rule:nonzero;stroke:none"
                 d="m 55.349,87.152 h 2.299 v -2.299 h -2.299 z" /><path
                 id="path836"
                 style="fill:#ffffff;fill-opacity:1;fill-rule:nonzero;stroke:none"
                 d="m 55.349,78.294 h 2.299 v -2.299 h -2.299 z" /><path
                 id="path838"
                 style="fill:#ffffff;fill-opacity:1;fill-rule:nonzero;stroke:none"
                 d="m 47.594,113.724 h 2.299 v -2.299 h -2.299 z" /><path
                 id="path840"
                 style="fill:#ffffff;fill-opacity:1;fill-rule:nonzero;stroke:none"
                 d="m 47.594,104.867 h 2.299 v -2.299 h -2.299 z" /><path
                 id="path842"
                 style="fill:#ffffff;fill-opacity:1;fill-rule:nonzero;stroke:none"
                 d="m 47.594,96.009 h 2.299 V 93.71 h -2.299 z" /><path
                 id="path844"
                 style="fill:#ffffff;fill-opacity:1;fill-rule:nonzero;stroke:none"
                 d="m 47.594,87.152 h 2.299 v -2.299 h -2.299 z" /><path
                 id="path846"
                 style="fill:#ffffff;fill-opacity:1;fill-rule:nonzero;stroke:none"
                 d="m 47.594,78.294 h 2.299 v -2.299 h -2.299 z" /></g></g></g></g></g></g></svg>